G04 #@! TF.GenerationSoftware,KiCad,Pcbnew,(6.0.7)*
G04 #@! TF.CreationDate,2023-04-10T20:46:38+08:00*
G04 #@! TF.ProjectId,switchNMos1,73776974-6368-44e4-9d6f-73312e6b6963,rev?*
G04 #@! TF.SameCoordinates,Original*
G04 #@! TF.FileFunction,Copper,L1,Top*
G04 #@! TF.FilePolarity,Positive*
%FSLAX46Y46*%
G04 Gerber Fmt 4.6, Leading zero omitted, Abs format (unit mm)*
G04 Created by KiCad (PCBNEW (6.0.7)) date 2023-04-10 20:46:38*
%MOMM*%
%LPD*%
G01*
G04 APERTURE LIST*
G04 Aperture macros list*
%AMRoundRect*
0 Rectangle with rounded corners*
0 $1 Rounding radius*
0 $2 $3 $4 $5 $6 $7 $8 $9 X,Y pos of 4 corners*
0 Add a 4 corners polygon primitive as box body*
4,1,4,$2,$3,$4,$5,$6,$7,$8,$9,$2,$3,0*
0 Add four circle primitives for the rounded corners*
1,1,$1+$1,$2,$3*
1,1,$1+$1,$4,$5*
1,1,$1+$1,$6,$7*
1,1,$1+$1,$8,$9*
0 Add four rect primitives between the rounded corners*
20,1,$1+$1,$2,$3,$4,$5,0*
20,1,$1+$1,$4,$5,$6,$7,0*
20,1,$1+$1,$6,$7,$8,$9,0*
20,1,$1+$1,$8,$9,$2,$3,0*%
G04 Aperture macros list end*
G04 #@! TA.AperFunction,SMDPad,CuDef*
%ADD10RoundRect,0.237500X-0.237500X0.250000X-0.237500X-0.250000X0.237500X-0.250000X0.237500X0.250000X0*%
G04 #@! TD*
G04 #@! TA.AperFunction,SMDPad,CuDef*
%ADD11RoundRect,0.150000X-0.587500X-0.150000X0.587500X-0.150000X0.587500X0.150000X-0.587500X0.150000X0*%
G04 #@! TD*
G04 #@! TA.AperFunction,ComponentPad*
%ADD12R,1.700000X1.700000*%
G04 #@! TD*
G04 #@! TA.AperFunction,ComponentPad*
%ADD13O,1.700000X1.700000*%
G04 #@! TD*
G04 #@! TA.AperFunction,ViaPad*
%ADD14C,0.700000*%
G04 #@! TD*
G04 #@! TA.AperFunction,Conductor*
%ADD15C,0.300000*%
G04 #@! TD*
G04 #@! TA.AperFunction,Conductor*
%ADD16C,0.800000*%
G04 #@! TD*
G04 #@! TA.AperFunction,Conductor*
%ADD17C,0.500000*%
G04 #@! TD*
G04 APERTURE END LIST*
D10*
X128094500Y-96115500D03*
X128094500Y-97940500D03*
X129618500Y-88495500D03*
X129618500Y-90320500D03*
D11*
X131475000Y-115255000D03*
X131475000Y-117155000D03*
X133350000Y-116205000D03*
D10*
X128094500Y-115165500D03*
X128094500Y-116990500D03*
X129618500Y-96115500D03*
X129618500Y-97940500D03*
X129618500Y-103735500D03*
X129618500Y-105560500D03*
X129618500Y-107545500D03*
X129618500Y-109370500D03*
D11*
X131475000Y-96205000D03*
X131475000Y-98105000D03*
X133350000Y-97155000D03*
D10*
X129618500Y-92305500D03*
X129618500Y-94130500D03*
D11*
X131475000Y-100015000D03*
X131475000Y-101915000D03*
X133350000Y-100965000D03*
X131475000Y-111445000D03*
X131475000Y-113345000D03*
X133350000Y-112395000D03*
D10*
X128094500Y-92305500D03*
X128094500Y-94130500D03*
X129618500Y-115165500D03*
X129618500Y-116990500D03*
X128094500Y-107545500D03*
X128094500Y-109370500D03*
X128094500Y-99925500D03*
X128094500Y-101750500D03*
X128094500Y-88495500D03*
X128094500Y-90320500D03*
X129618500Y-99925500D03*
X129618500Y-101750500D03*
X129618500Y-111355500D03*
X129618500Y-113180500D03*
D11*
X131475000Y-92395000D03*
X131475000Y-94295000D03*
X133350000Y-93345000D03*
D10*
X128094500Y-103735500D03*
X128094500Y-105560500D03*
D11*
X131475000Y-88585000D03*
X131475000Y-90485000D03*
X133350000Y-89535000D03*
D10*
X128094500Y-111355500D03*
X128094500Y-113180500D03*
D11*
X131475000Y-107635000D03*
X131475000Y-109535000D03*
X133350000Y-108585000D03*
X131475000Y-103825000D03*
X131475000Y-105725000D03*
X133350000Y-104775000D03*
D12*
X137160000Y-88900000D03*
D13*
X137160000Y-91440000D03*
X137160000Y-93980000D03*
X137160000Y-96520000D03*
X137160000Y-99060000D03*
X137160000Y-101600000D03*
X137160000Y-104140000D03*
X137160000Y-106680000D03*
X137160000Y-109220000D03*
X137160000Y-111760000D03*
X137160000Y-114300000D03*
X137160000Y-116840000D03*
D12*
X124460000Y-88900000D03*
D13*
X124460000Y-91440000D03*
X124460000Y-93980000D03*
X124460000Y-96520000D03*
X124460000Y-99060000D03*
X124460000Y-101600000D03*
X124460000Y-104140000D03*
X124460000Y-106680000D03*
X124460000Y-109220000D03*
X124460000Y-111760000D03*
X124460000Y-114300000D03*
X124460000Y-116840000D03*
D14*
X133350000Y-106045000D03*
X133350000Y-109855000D03*
X130810000Y-89535000D03*
X130810000Y-97155000D03*
X130810000Y-108585000D03*
X133350000Y-113665000D03*
X134940000Y-117155000D03*
X130810000Y-104775000D03*
X133350000Y-102235000D03*
X133350000Y-91440000D03*
X133350000Y-98425000D03*
X130810000Y-93345000D03*
X130810000Y-112395000D03*
X130810000Y-100965000D03*
X133350000Y-94615000D03*
D15*
X128094500Y-90345500D02*
X128094500Y-90320500D01*
X124460000Y-93980000D02*
X128094500Y-90345500D01*
X126849500Y-94130500D02*
X128094500Y-94130500D01*
X124460000Y-96520000D02*
X126849500Y-94130500D01*
X126975000Y-99060000D02*
X128094500Y-97940500D01*
X124460000Y-99060000D02*
X126975000Y-99060000D01*
X124460000Y-101600000D02*
X127944000Y-101600000D01*
X127944000Y-101600000D02*
X128094500Y-101750500D01*
X124460000Y-104140000D02*
X125880500Y-105560500D01*
X125880500Y-105560500D02*
X128094500Y-105560500D01*
X127150500Y-109370500D02*
X128094500Y-109370500D01*
X124460000Y-106680000D02*
X127150500Y-109370500D01*
X128094500Y-112854500D02*
X128094500Y-113180500D01*
X124460000Y-109220000D02*
X128094500Y-112854500D01*
X124460000Y-111760000D02*
X127000000Y-114300000D01*
X127000000Y-114300000D02*
X127000000Y-116205000D01*
X127785500Y-116990500D02*
X128094500Y-116990500D01*
X127000000Y-116205000D02*
X127785500Y-116990500D01*
D16*
X133985000Y-89535000D02*
X133350000Y-89535000D01*
X137160000Y-93980000D02*
X135255000Y-92075000D01*
X135255000Y-92075000D02*
X135255000Y-90805000D01*
X135255000Y-90805000D02*
X133985000Y-89535000D01*
X133985000Y-93345000D02*
X133350000Y-93345000D01*
X137160000Y-96520000D02*
X133985000Y-93345000D01*
X135255000Y-97155000D02*
X137160000Y-99060000D01*
X133350000Y-97155000D02*
X135255000Y-97155000D01*
X136525000Y-100965000D02*
X137160000Y-101600000D01*
X133350000Y-100965000D02*
X136525000Y-100965000D01*
X137160000Y-104140000D02*
X133985000Y-104140000D01*
X133985000Y-104140000D02*
X133350000Y-104775000D01*
X135255000Y-106680000D02*
X133350000Y-108585000D01*
X137160000Y-106680000D02*
X135255000Y-106680000D01*
X136525000Y-109220000D02*
X133350000Y-112395000D01*
X137160000Y-109220000D02*
X136525000Y-109220000D01*
X137160000Y-111760000D02*
X133350000Y-115570000D01*
X133350000Y-115570000D02*
X133350000Y-116205000D01*
D15*
X129618500Y-88495500D02*
X131385500Y-88495500D01*
X131385500Y-88495500D02*
X131475000Y-88585000D01*
X128094500Y-88495500D02*
X129618500Y-88495500D01*
D17*
X124460000Y-88900000D02*
X124460000Y-91440000D01*
X129783000Y-90485000D02*
X129618500Y-90320500D01*
D16*
X129618500Y-109370500D02*
X129783000Y-109535000D01*
X130810000Y-93630000D02*
X131475000Y-94295000D01*
X130810000Y-97440000D02*
X131475000Y-98105000D01*
X130810000Y-109215000D02*
X130490000Y-109535000D01*
D17*
X137160000Y-114300000D02*
X137160000Y-116840000D01*
D16*
X133350000Y-113665000D02*
X131795000Y-113665000D01*
D17*
X131475000Y-105725000D02*
X129783000Y-105725000D01*
D16*
X133350000Y-109855000D02*
X130810000Y-109855000D01*
X131795000Y-94615000D02*
X131475000Y-94295000D01*
D17*
X128499000Y-118110000D02*
X129618500Y-116990500D01*
X129783000Y-94295000D02*
X129618500Y-94130500D01*
D16*
X130810000Y-100965000D02*
X130810000Y-101250000D01*
D17*
X131475000Y-98105000D02*
X129783000Y-98105000D01*
X131475000Y-101915000D02*
X129783000Y-101915000D01*
X136845000Y-117155000D02*
X134940000Y-117155000D01*
X129783000Y-105725000D02*
X129618500Y-105560500D01*
X131475000Y-90485000D02*
X129783000Y-90485000D01*
X137160000Y-88900000D02*
X137160000Y-91440000D01*
X129783000Y-113345000D02*
X129618500Y-113180500D01*
D16*
X130810000Y-104775000D02*
X130810000Y-105060000D01*
X132430000Y-91440000D02*
X131475000Y-90485000D01*
X130810000Y-108585000D02*
X130810000Y-109215000D01*
D17*
X125730000Y-118110000D02*
X128499000Y-118110000D01*
D16*
X133350000Y-91440000D02*
X132430000Y-91440000D01*
D17*
X131475000Y-94295000D02*
X129783000Y-94295000D01*
X134940000Y-117155000D02*
X131475000Y-117155000D01*
X137160000Y-116840000D02*
X136845000Y-117155000D01*
X124460000Y-114300000D02*
X124460000Y-116840000D01*
D16*
X131795000Y-98425000D02*
X131475000Y-98105000D01*
X131795000Y-113665000D02*
X131475000Y-113345000D01*
X133350000Y-102235000D02*
X131795000Y-102235000D01*
D17*
X131475000Y-113345000D02*
X129783000Y-113345000D01*
D16*
X133350000Y-94615000D02*
X131795000Y-94615000D01*
X131795000Y-102235000D02*
X131475000Y-101915000D01*
X133350000Y-106045000D02*
X131795000Y-106045000D01*
D17*
X129618500Y-116990500D02*
X131310500Y-116990500D01*
D16*
X130810000Y-93345000D02*
X130810000Y-93630000D01*
X131795000Y-106045000D02*
X131475000Y-105725000D01*
X133350000Y-98425000D02*
X131795000Y-98425000D01*
X130810000Y-89820000D02*
X131475000Y-90485000D01*
D17*
X129783000Y-98105000D02*
X129618500Y-97940500D01*
D16*
X130810000Y-112680000D02*
X131475000Y-113345000D01*
X130810000Y-109855000D02*
X130490000Y-109535000D01*
X130810000Y-105060000D02*
X131475000Y-105725000D01*
X129783000Y-109535000D02*
X130490000Y-109535000D01*
D17*
X124460000Y-116840000D02*
X125730000Y-118110000D01*
X129783000Y-101915000D02*
X129618500Y-101750500D01*
D16*
X130810000Y-89535000D02*
X130810000Y-89820000D01*
D17*
X131310500Y-116990500D02*
X131475000Y-117155000D01*
D16*
X130810000Y-101250000D02*
X131475000Y-101915000D01*
X130490000Y-109535000D02*
X131475000Y-109535000D01*
X130810000Y-97155000D02*
X130810000Y-97440000D01*
X130810000Y-112395000D02*
X130810000Y-112680000D01*
D15*
X131385500Y-103735500D02*
X131475000Y-103825000D01*
X129618500Y-103735500D02*
X131385500Y-103735500D01*
X128094500Y-103735500D02*
X129618500Y-103735500D01*
X131385500Y-92305500D02*
X131475000Y-92395000D01*
X129618500Y-92305500D02*
X131385500Y-92305500D01*
X128094500Y-92305500D02*
X129618500Y-92305500D01*
X128094500Y-107545500D02*
X129618500Y-107545500D01*
X131385500Y-107545500D02*
X131475000Y-107635000D01*
X129618500Y-107545500D02*
X131385500Y-107545500D01*
X129618500Y-96115500D02*
X131385500Y-96115500D01*
X131385500Y-96115500D02*
X131475000Y-96205000D01*
X128094500Y-96115500D02*
X129618500Y-96115500D01*
X128094500Y-111355500D02*
X129618500Y-111355500D01*
X131385500Y-111355500D02*
X131475000Y-111445000D01*
X129618500Y-111355500D02*
X131385500Y-111355500D01*
X131385500Y-99925500D02*
X131475000Y-100015000D01*
X128094500Y-99925500D02*
X129618500Y-99925500D01*
X129618500Y-99925500D02*
X131385500Y-99925500D01*
X128094500Y-115165500D02*
X129618500Y-115165500D01*
X131385500Y-115165500D02*
X131475000Y-115255000D01*
X129618500Y-115165500D02*
X131385500Y-115165500D01*
M02*
