G04 #@! TF.GenerationSoftware,KiCad,Pcbnew,(6.0.7)*
G04 #@! TF.CreationDate,2023-04-10T20:46:38+08:00*
G04 #@! TF.ProjectId,switchNMos1,73776974-6368-44e4-9d6f-73312e6b6963,rev?*
G04 #@! TF.SameCoordinates,Original*
G04 #@! TF.FileFunction,Copper,L2,Bot*
G04 #@! TF.FilePolarity,Positive*
%FSLAX46Y46*%
G04 Gerber Fmt 4.6, Leading zero omitted, Abs format (unit mm)*
G04 Created by KiCad (PCBNEW (6.0.7)) date 2023-04-10 20:46:38*
%MOMM*%
%LPD*%
G01*
G04 APERTURE LIST*
G04 #@! TA.AperFunction,ComponentPad*
%ADD10R,1.700000X1.700000*%
G04 #@! TD*
G04 #@! TA.AperFunction,ComponentPad*
%ADD11O,1.700000X1.700000*%
G04 #@! TD*
G04 #@! TA.AperFunction,ViaPad*
%ADD12C,0.700000*%
G04 #@! TD*
G04 APERTURE END LIST*
D10*
X137160000Y-88900000D03*
D11*
X137160000Y-91440000D03*
X137160000Y-93980000D03*
X137160000Y-96520000D03*
X137160000Y-99060000D03*
X137160000Y-101600000D03*
X137160000Y-104140000D03*
X137160000Y-106680000D03*
X137160000Y-109220000D03*
X137160000Y-111760000D03*
X137160000Y-114300000D03*
X137160000Y-116840000D03*
D10*
X124460000Y-88900000D03*
D11*
X124460000Y-91440000D03*
X124460000Y-93980000D03*
X124460000Y-96520000D03*
X124460000Y-99060000D03*
X124460000Y-101600000D03*
X124460000Y-104140000D03*
X124460000Y-106680000D03*
X124460000Y-109220000D03*
X124460000Y-111760000D03*
X124460000Y-114300000D03*
X124460000Y-116840000D03*
D12*
X133350000Y-106045000D03*
X133350000Y-109855000D03*
X130810000Y-89535000D03*
X130810000Y-97155000D03*
X130810000Y-108585000D03*
X133350000Y-113665000D03*
X134940000Y-117155000D03*
X130810000Y-104775000D03*
X133350000Y-102235000D03*
X133350000Y-91440000D03*
X133350000Y-98425000D03*
X130810000Y-93345000D03*
X130810000Y-112395000D03*
X130810000Y-100965000D03*
X133350000Y-94615000D03*
G04 #@! TA.AperFunction,Conductor*
G36*
X138400018Y-86870000D02*
G01*
X138414852Y-86872310D01*
X138414855Y-86872310D01*
X138423724Y-86873691D01*
X138433659Y-86872392D01*
X138434746Y-86872250D01*
X138463431Y-86871793D01*
X138536741Y-86879013D01*
X138566212Y-86881916D01*
X138590432Y-86886733D01*
X138709546Y-86922866D01*
X138732355Y-86932315D01*
X138842124Y-86990987D01*
X138862655Y-87004705D01*
X138958876Y-87083671D01*
X138976329Y-87101124D01*
X139055295Y-87197345D01*
X139069013Y-87217876D01*
X139127685Y-87327645D01*
X139137134Y-87350454D01*
X139173267Y-87469568D01*
X139178084Y-87493789D01*
X139187541Y-87589809D01*
X139187091Y-87605868D01*
X139187800Y-87605877D01*
X139187690Y-87614853D01*
X139186309Y-87623724D01*
X139187473Y-87632626D01*
X139187473Y-87632628D01*
X139190436Y-87655283D01*
X139191500Y-87671621D01*
X139191500Y-118060633D01*
X139190000Y-118080018D01*
X139186309Y-118103724D01*
X139187473Y-118112626D01*
X139187750Y-118114746D01*
X139188207Y-118143431D01*
X139185531Y-118170606D01*
X139178084Y-118246212D01*
X139173267Y-118270432D01*
X139137134Y-118389546D01*
X139127685Y-118412355D01*
X139069013Y-118522124D01*
X139055295Y-118542655D01*
X138976329Y-118638876D01*
X138958876Y-118656329D01*
X138862655Y-118735295D01*
X138842124Y-118749013D01*
X138732355Y-118807685D01*
X138709546Y-118817134D01*
X138590432Y-118853267D01*
X138566211Y-118858084D01*
X138470191Y-118867541D01*
X138454132Y-118867091D01*
X138454123Y-118867800D01*
X138445147Y-118867690D01*
X138436276Y-118866309D01*
X138427374Y-118867473D01*
X138427372Y-118867473D01*
X138414856Y-118869110D01*
X138404714Y-118870436D01*
X138388379Y-118871500D01*
X123239367Y-118871500D01*
X123219982Y-118870000D01*
X123205148Y-118867690D01*
X123205145Y-118867690D01*
X123196276Y-118866309D01*
X123186341Y-118867608D01*
X123185254Y-118867750D01*
X123156569Y-118868207D01*
X123083259Y-118860987D01*
X123053788Y-118858084D01*
X123029568Y-118853267D01*
X122910454Y-118817134D01*
X122887645Y-118807685D01*
X122777876Y-118749013D01*
X122757345Y-118735295D01*
X122661124Y-118656329D01*
X122643671Y-118638876D01*
X122564705Y-118542655D01*
X122550987Y-118522124D01*
X122492315Y-118412355D01*
X122482866Y-118389546D01*
X122446733Y-118270432D01*
X122441916Y-118246212D01*
X122432711Y-118152755D01*
X122432607Y-118129151D01*
X122432768Y-118127354D01*
X122433576Y-118122552D01*
X122433729Y-118110000D01*
X122429773Y-118082376D01*
X122428500Y-118064514D01*
X122428500Y-117107966D01*
X123128257Y-117107966D01*
X123158565Y-117242446D01*
X123161645Y-117252275D01*
X123241770Y-117449603D01*
X123246413Y-117458794D01*
X123357694Y-117640388D01*
X123363777Y-117648699D01*
X123503213Y-117809667D01*
X123510580Y-117816883D01*
X123674434Y-117952916D01*
X123682881Y-117958831D01*
X123866756Y-118066279D01*
X123876042Y-118070729D01*
X124075001Y-118146703D01*
X124084899Y-118149579D01*
X124188250Y-118170606D01*
X124202299Y-118169410D01*
X124206000Y-118159065D01*
X124206000Y-118158517D01*
X124714000Y-118158517D01*
X124718064Y-118172359D01*
X124731478Y-118174393D01*
X124738184Y-118173534D01*
X124748262Y-118171392D01*
X124952255Y-118110191D01*
X124961842Y-118106433D01*
X125153095Y-118012739D01*
X125161945Y-118007464D01*
X125335328Y-117883792D01*
X125343200Y-117877139D01*
X125494052Y-117726812D01*
X125500730Y-117718965D01*
X125625003Y-117546020D01*
X125630313Y-117537183D01*
X125724670Y-117346267D01*
X125728469Y-117336672D01*
X125790377Y-117132910D01*
X125792555Y-117122837D01*
X125793986Y-117111962D01*
X125793363Y-117107966D01*
X135828257Y-117107966D01*
X135858565Y-117242446D01*
X135861645Y-117252275D01*
X135941770Y-117449603D01*
X135946413Y-117458794D01*
X136057694Y-117640388D01*
X136063777Y-117648699D01*
X136203213Y-117809667D01*
X136210580Y-117816883D01*
X136374434Y-117952916D01*
X136382881Y-117958831D01*
X136566756Y-118066279D01*
X136576042Y-118070729D01*
X136775001Y-118146703D01*
X136784899Y-118149579D01*
X136888250Y-118170606D01*
X136902299Y-118169410D01*
X136906000Y-118159065D01*
X136906000Y-118158517D01*
X137414000Y-118158517D01*
X137418064Y-118172359D01*
X137431478Y-118174393D01*
X137438184Y-118173534D01*
X137448262Y-118171392D01*
X137652255Y-118110191D01*
X137661842Y-118106433D01*
X137853095Y-118012739D01*
X137861945Y-118007464D01*
X138035328Y-117883792D01*
X138043200Y-117877139D01*
X138194052Y-117726812D01*
X138200730Y-117718965D01*
X138325003Y-117546020D01*
X138330313Y-117537183D01*
X138424670Y-117346267D01*
X138428469Y-117336672D01*
X138490377Y-117132910D01*
X138492555Y-117122837D01*
X138493986Y-117111962D01*
X138491775Y-117097778D01*
X138478617Y-117094000D01*
X137432115Y-117094000D01*
X137416876Y-117098475D01*
X137415671Y-117099865D01*
X137414000Y-117107548D01*
X137414000Y-118158517D01*
X136906000Y-118158517D01*
X136906000Y-117112115D01*
X136901525Y-117096876D01*
X136900135Y-117095671D01*
X136892452Y-117094000D01*
X135843225Y-117094000D01*
X135829694Y-117097973D01*
X135828257Y-117107966D01*
X125793363Y-117107966D01*
X125791775Y-117097778D01*
X125778617Y-117094000D01*
X124732115Y-117094000D01*
X124716876Y-117098475D01*
X124715671Y-117099865D01*
X124714000Y-117107548D01*
X124714000Y-118158517D01*
X124206000Y-118158517D01*
X124206000Y-117112115D01*
X124201525Y-117096876D01*
X124200135Y-117095671D01*
X124192452Y-117094000D01*
X123143225Y-117094000D01*
X123129694Y-117097973D01*
X123128257Y-117107966D01*
X122428500Y-117107966D01*
X122428500Y-116574183D01*
X123124389Y-116574183D01*
X123125912Y-116582607D01*
X123138292Y-116586000D01*
X124187885Y-116586000D01*
X124203124Y-116581525D01*
X124204329Y-116580135D01*
X124206000Y-116572452D01*
X124206000Y-116567885D01*
X124714000Y-116567885D01*
X124718475Y-116583124D01*
X124719865Y-116584329D01*
X124727548Y-116586000D01*
X125778344Y-116586000D01*
X125791875Y-116582027D01*
X125793002Y-116574183D01*
X135824389Y-116574183D01*
X135825912Y-116582607D01*
X135838292Y-116586000D01*
X136887885Y-116586000D01*
X136903124Y-116581525D01*
X136904329Y-116580135D01*
X136906000Y-116572452D01*
X136906000Y-116567885D01*
X137414000Y-116567885D01*
X137418475Y-116583124D01*
X137419865Y-116584329D01*
X137427548Y-116586000D01*
X138478344Y-116586000D01*
X138491875Y-116582027D01*
X138493180Y-116572947D01*
X138451214Y-116405875D01*
X138447894Y-116396124D01*
X138362972Y-116200814D01*
X138358105Y-116191739D01*
X138242426Y-116012926D01*
X138236136Y-116004757D01*
X138092806Y-115847240D01*
X138085273Y-115840215D01*
X137918139Y-115708222D01*
X137909552Y-115702517D01*
X137872116Y-115681851D01*
X137822146Y-115631419D01*
X137807374Y-115561976D01*
X137832490Y-115495571D01*
X137859842Y-115468964D01*
X138035327Y-115343792D01*
X138043200Y-115337139D01*
X138194052Y-115186812D01*
X138200730Y-115178965D01*
X138325003Y-115006020D01*
X138330313Y-114997183D01*
X138424670Y-114806267D01*
X138428469Y-114796672D01*
X138490377Y-114592910D01*
X138492555Y-114582837D01*
X138493986Y-114571962D01*
X138491775Y-114557778D01*
X138478617Y-114554000D01*
X137432115Y-114554000D01*
X137416876Y-114558475D01*
X137415671Y-114559865D01*
X137414000Y-114567548D01*
X137414000Y-116567885D01*
X136906000Y-116567885D01*
X136906000Y-114572115D01*
X136901525Y-114556876D01*
X136900135Y-114555671D01*
X136892452Y-114554000D01*
X135843225Y-114554000D01*
X135829694Y-114557973D01*
X135828257Y-114567966D01*
X135858565Y-114702446D01*
X135861645Y-114712275D01*
X135941770Y-114909603D01*
X135946413Y-114918794D01*
X136057694Y-115100388D01*
X136063777Y-115108699D01*
X136203213Y-115269667D01*
X136210580Y-115276883D01*
X136374434Y-115412916D01*
X136382881Y-115418831D01*
X136452479Y-115459501D01*
X136501203Y-115511140D01*
X136514274Y-115580923D01*
X136487543Y-115646694D01*
X136447087Y-115680053D01*
X136438462Y-115684542D01*
X136429738Y-115690036D01*
X136259433Y-115817905D01*
X136251726Y-115824748D01*
X136104590Y-115978717D01*
X136098104Y-115986727D01*
X135978098Y-116162649D01*
X135973000Y-116171623D01*
X135883338Y-116364783D01*
X135879775Y-116374470D01*
X135824389Y-116574183D01*
X125793002Y-116574183D01*
X125793180Y-116572947D01*
X125751214Y-116405875D01*
X125747894Y-116396124D01*
X125662972Y-116200814D01*
X125658105Y-116191739D01*
X125542426Y-116012926D01*
X125536136Y-116004757D01*
X125392806Y-115847240D01*
X125385273Y-115840215D01*
X125218139Y-115708222D01*
X125209552Y-115702517D01*
X125172116Y-115681851D01*
X125122146Y-115631419D01*
X125107374Y-115561976D01*
X125132490Y-115495571D01*
X125159842Y-115468964D01*
X125335327Y-115343792D01*
X125343200Y-115337139D01*
X125494052Y-115186812D01*
X125500730Y-115178965D01*
X125625003Y-115006020D01*
X125630313Y-114997183D01*
X125724670Y-114806267D01*
X125728469Y-114796672D01*
X125790377Y-114592910D01*
X125792555Y-114582837D01*
X125793986Y-114571962D01*
X125791775Y-114557778D01*
X125778617Y-114554000D01*
X124732115Y-114554000D01*
X124716876Y-114558475D01*
X124715671Y-114559865D01*
X124714000Y-114567548D01*
X124714000Y-116567885D01*
X124206000Y-116567885D01*
X124206000Y-114572115D01*
X124201525Y-114556876D01*
X124200135Y-114555671D01*
X124192452Y-114554000D01*
X123143225Y-114554000D01*
X123129694Y-114557973D01*
X123128257Y-114567966D01*
X123158565Y-114702446D01*
X123161645Y-114712275D01*
X123241770Y-114909603D01*
X123246413Y-114918794D01*
X123357694Y-115100388D01*
X123363777Y-115108699D01*
X123503213Y-115269667D01*
X123510580Y-115276883D01*
X123674434Y-115412916D01*
X123682881Y-115418831D01*
X123752479Y-115459501D01*
X123801203Y-115511140D01*
X123814274Y-115580923D01*
X123787543Y-115646694D01*
X123747087Y-115680053D01*
X123738462Y-115684542D01*
X123729738Y-115690036D01*
X123559433Y-115817905D01*
X123551726Y-115824748D01*
X123404590Y-115978717D01*
X123398104Y-115986727D01*
X123278098Y-116162649D01*
X123273000Y-116171623D01*
X123183338Y-116364783D01*
X123179775Y-116374470D01*
X123124389Y-116574183D01*
X122428500Y-116574183D01*
X122428500Y-111726695D01*
X123097251Y-111726695D01*
X123097548Y-111731848D01*
X123097548Y-111731851D01*
X123103011Y-111826590D01*
X123110110Y-111949715D01*
X123111247Y-111954761D01*
X123111248Y-111954767D01*
X123131119Y-112042939D01*
X123159222Y-112167639D01*
X123243266Y-112374616D01*
X123359987Y-112565088D01*
X123506250Y-112733938D01*
X123678126Y-112876632D01*
X123751955Y-112919774D01*
X123800679Y-112971412D01*
X123813750Y-113041195D01*
X123787019Y-113106967D01*
X123746562Y-113140327D01*
X123738457Y-113144546D01*
X123729738Y-113150036D01*
X123559433Y-113277905D01*
X123551726Y-113284748D01*
X123404590Y-113438717D01*
X123398104Y-113446727D01*
X123278098Y-113622649D01*
X123273000Y-113631623D01*
X123183338Y-113824783D01*
X123179775Y-113834470D01*
X123124389Y-114034183D01*
X123125912Y-114042607D01*
X123138292Y-114046000D01*
X125778344Y-114046000D01*
X125791875Y-114042027D01*
X125793180Y-114032947D01*
X125751214Y-113865875D01*
X125747894Y-113856124D01*
X125662972Y-113660814D01*
X125658105Y-113651739D01*
X125542426Y-113472926D01*
X125536136Y-113464757D01*
X125392806Y-113307240D01*
X125385273Y-113300215D01*
X125218139Y-113168222D01*
X125209556Y-113162520D01*
X125172602Y-113142120D01*
X125122631Y-113091687D01*
X125107859Y-113022245D01*
X125132975Y-112955839D01*
X125160327Y-112929232D01*
X125183797Y-112912491D01*
X125339860Y-112801173D01*
X125498096Y-112643489D01*
X125557594Y-112560689D01*
X125625435Y-112466277D01*
X125628453Y-112462077D01*
X125727430Y-112261811D01*
X125792370Y-112048069D01*
X125821529Y-111826590D01*
X125823156Y-111760000D01*
X125820418Y-111726695D01*
X135797251Y-111726695D01*
X135797548Y-111731848D01*
X135797548Y-111731851D01*
X135803011Y-111826590D01*
X135810110Y-111949715D01*
X135811247Y-111954761D01*
X135811248Y-111954767D01*
X135831119Y-112042939D01*
X135859222Y-112167639D01*
X135943266Y-112374616D01*
X136059987Y-112565088D01*
X136206250Y-112733938D01*
X136378126Y-112876632D01*
X136451955Y-112919774D01*
X136500679Y-112971412D01*
X136513750Y-113041195D01*
X136487019Y-113106967D01*
X136446562Y-113140327D01*
X136438457Y-113144546D01*
X136429738Y-113150036D01*
X136259433Y-113277905D01*
X136251726Y-113284748D01*
X136104590Y-113438717D01*
X136098104Y-113446727D01*
X135978098Y-113622649D01*
X135973000Y-113631623D01*
X135883338Y-113824783D01*
X135879775Y-113834470D01*
X135824389Y-114034183D01*
X135825912Y-114042607D01*
X135838292Y-114046000D01*
X138478344Y-114046000D01*
X138491875Y-114042027D01*
X138493180Y-114032947D01*
X138451214Y-113865875D01*
X138447894Y-113856124D01*
X138362972Y-113660814D01*
X138358105Y-113651739D01*
X138242426Y-113472926D01*
X138236136Y-113464757D01*
X138092806Y-113307240D01*
X138085273Y-113300215D01*
X137918139Y-113168222D01*
X137909556Y-113162520D01*
X137872602Y-113142120D01*
X137822631Y-113091687D01*
X137807859Y-113022245D01*
X137832975Y-112955839D01*
X137860327Y-112929232D01*
X137883797Y-112912491D01*
X138039860Y-112801173D01*
X138198096Y-112643489D01*
X138257594Y-112560689D01*
X138325435Y-112466277D01*
X138328453Y-112462077D01*
X138427430Y-112261811D01*
X138492370Y-112048069D01*
X138521529Y-111826590D01*
X138523156Y-111760000D01*
X138504852Y-111537361D01*
X138450431Y-111320702D01*
X138361354Y-111115840D01*
X138240014Y-110928277D01*
X138089670Y-110763051D01*
X138085619Y-110759852D01*
X138085615Y-110759848D01*
X137918414Y-110627800D01*
X137918410Y-110627798D01*
X137914359Y-110624598D01*
X137873053Y-110601796D01*
X137823084Y-110551364D01*
X137808312Y-110481921D01*
X137833428Y-110415516D01*
X137860780Y-110388909D01*
X137904603Y-110357650D01*
X138039860Y-110261173D01*
X138198096Y-110103489D01*
X138257594Y-110020689D01*
X138325435Y-109926277D01*
X138328453Y-109922077D01*
X138427430Y-109721811D01*
X138492370Y-109508069D01*
X138521529Y-109286590D01*
X138523156Y-109220000D01*
X138504852Y-108997361D01*
X138450431Y-108780702D01*
X138361354Y-108575840D01*
X138240014Y-108388277D01*
X138089670Y-108223051D01*
X138085619Y-108219852D01*
X138085615Y-108219848D01*
X137918414Y-108087800D01*
X137918410Y-108087798D01*
X137914359Y-108084598D01*
X137873053Y-108061796D01*
X137823084Y-108011364D01*
X137808312Y-107941921D01*
X137833428Y-107875516D01*
X137860780Y-107848909D01*
X137904603Y-107817650D01*
X138039860Y-107721173D01*
X138198096Y-107563489D01*
X138257594Y-107480689D01*
X138325435Y-107386277D01*
X138328453Y-107382077D01*
X138427430Y-107181811D01*
X138492370Y-106968069D01*
X138521529Y-106746590D01*
X138523156Y-106680000D01*
X138504852Y-106457361D01*
X138450431Y-106240702D01*
X138361354Y-106035840D01*
X138240014Y-105848277D01*
X138089670Y-105683051D01*
X138085619Y-105679852D01*
X138085615Y-105679848D01*
X137918414Y-105547800D01*
X137918410Y-105547798D01*
X137914359Y-105544598D01*
X137873053Y-105521796D01*
X137823084Y-105471364D01*
X137808312Y-105401921D01*
X137833428Y-105335516D01*
X137860780Y-105308909D01*
X137904603Y-105277650D01*
X138039860Y-105181173D01*
X138198096Y-105023489D01*
X138257594Y-104940689D01*
X138325435Y-104846277D01*
X138328453Y-104842077D01*
X138427430Y-104641811D01*
X138492370Y-104428069D01*
X138521529Y-104206590D01*
X138523156Y-104140000D01*
X138504852Y-103917361D01*
X138450431Y-103700702D01*
X138361354Y-103495840D01*
X138240014Y-103308277D01*
X138089670Y-103143051D01*
X138085619Y-103139852D01*
X138085615Y-103139848D01*
X137918414Y-103007800D01*
X137918410Y-103007798D01*
X137914359Y-103004598D01*
X137873053Y-102981796D01*
X137823084Y-102931364D01*
X137808312Y-102861921D01*
X137833428Y-102795516D01*
X137860780Y-102768909D01*
X137904603Y-102737650D01*
X138039860Y-102641173D01*
X138198096Y-102483489D01*
X138257594Y-102400689D01*
X138325435Y-102306277D01*
X138328453Y-102302077D01*
X138427430Y-102101811D01*
X138492370Y-101888069D01*
X138521529Y-101666590D01*
X138523156Y-101600000D01*
X138504852Y-101377361D01*
X138450431Y-101160702D01*
X138361354Y-100955840D01*
X138240014Y-100768277D01*
X138089670Y-100603051D01*
X138085619Y-100599852D01*
X138085615Y-100599848D01*
X137918414Y-100467800D01*
X137918410Y-100467798D01*
X137914359Y-100464598D01*
X137873053Y-100441796D01*
X137823084Y-100391364D01*
X137808312Y-100321921D01*
X137833428Y-100255516D01*
X137860780Y-100228909D01*
X137904603Y-100197650D01*
X138039860Y-100101173D01*
X138198096Y-99943489D01*
X138257594Y-99860689D01*
X138325435Y-99766277D01*
X138328453Y-99762077D01*
X138427430Y-99561811D01*
X138492370Y-99348069D01*
X138521529Y-99126590D01*
X138523156Y-99060000D01*
X138504852Y-98837361D01*
X138450431Y-98620702D01*
X138361354Y-98415840D01*
X138240014Y-98228277D01*
X138089670Y-98063051D01*
X138085619Y-98059852D01*
X138085615Y-98059848D01*
X137918414Y-97927800D01*
X137918410Y-97927798D01*
X137914359Y-97924598D01*
X137873053Y-97901796D01*
X137823084Y-97851364D01*
X137808312Y-97781921D01*
X137833428Y-97715516D01*
X137860780Y-97688909D01*
X137904603Y-97657650D01*
X138039860Y-97561173D01*
X138198096Y-97403489D01*
X138257594Y-97320689D01*
X138325435Y-97226277D01*
X138328453Y-97222077D01*
X138427430Y-97021811D01*
X138492370Y-96808069D01*
X138521529Y-96586590D01*
X138523156Y-96520000D01*
X138504852Y-96297361D01*
X138450431Y-96080702D01*
X138361354Y-95875840D01*
X138240014Y-95688277D01*
X138089670Y-95523051D01*
X138085619Y-95519852D01*
X138085615Y-95519848D01*
X137918414Y-95387800D01*
X137918410Y-95387798D01*
X137914359Y-95384598D01*
X137873053Y-95361796D01*
X137823084Y-95311364D01*
X137808312Y-95241921D01*
X137833428Y-95175516D01*
X137860780Y-95148909D01*
X137904603Y-95117650D01*
X138039860Y-95021173D01*
X138198096Y-94863489D01*
X138257594Y-94780689D01*
X138325435Y-94686277D01*
X138328453Y-94682077D01*
X138427430Y-94481811D01*
X138492370Y-94268069D01*
X138521529Y-94046590D01*
X138523156Y-93980000D01*
X138504852Y-93757361D01*
X138450431Y-93540702D01*
X138361354Y-93335840D01*
X138240014Y-93148277D01*
X138089670Y-92983051D01*
X138085619Y-92979852D01*
X138085615Y-92979848D01*
X137918414Y-92847800D01*
X137918410Y-92847798D01*
X137914359Y-92844598D01*
X137872569Y-92821529D01*
X137822598Y-92771097D01*
X137807826Y-92701654D01*
X137832942Y-92635248D01*
X137860294Y-92608641D01*
X138035328Y-92483792D01*
X138043200Y-92477139D01*
X138194052Y-92326812D01*
X138200730Y-92318965D01*
X138325003Y-92146020D01*
X138330313Y-92137183D01*
X138424670Y-91946267D01*
X138428469Y-91936672D01*
X138490377Y-91732910D01*
X138492555Y-91722837D01*
X138493986Y-91711962D01*
X138491775Y-91697778D01*
X138478617Y-91694000D01*
X135843225Y-91694000D01*
X135829694Y-91697973D01*
X135828257Y-91707966D01*
X135858565Y-91842446D01*
X135861645Y-91852275D01*
X135941770Y-92049603D01*
X135946413Y-92058794D01*
X136057694Y-92240388D01*
X136063777Y-92248699D01*
X136203213Y-92409667D01*
X136210580Y-92416883D01*
X136374434Y-92552916D01*
X136382881Y-92558831D01*
X136451969Y-92599203D01*
X136500693Y-92650842D01*
X136513764Y-92720625D01*
X136487033Y-92786396D01*
X136446584Y-92819752D01*
X136433607Y-92826507D01*
X136429474Y-92829610D01*
X136429471Y-92829612D01*
X136405247Y-92847800D01*
X136254965Y-92960635D01*
X136100629Y-93122138D01*
X135974743Y-93306680D01*
X135880688Y-93509305D01*
X135820989Y-93724570D01*
X135797251Y-93946695D01*
X135797548Y-93951848D01*
X135797548Y-93951851D01*
X135803011Y-94046590D01*
X135810110Y-94169715D01*
X135811247Y-94174761D01*
X135811248Y-94174767D01*
X135831119Y-94262939D01*
X135859222Y-94387639D01*
X135943266Y-94594616D01*
X136059987Y-94785088D01*
X136206250Y-94953938D01*
X136378126Y-95096632D01*
X136448595Y-95137811D01*
X136451445Y-95139476D01*
X136500169Y-95191114D01*
X136513240Y-95260897D01*
X136486509Y-95326669D01*
X136446055Y-95360027D01*
X136433607Y-95366507D01*
X136429474Y-95369610D01*
X136429471Y-95369612D01*
X136405247Y-95387800D01*
X136254965Y-95500635D01*
X136100629Y-95662138D01*
X135974743Y-95846680D01*
X135880688Y-96049305D01*
X135820989Y-96264570D01*
X135797251Y-96486695D01*
X135797548Y-96491848D01*
X135797548Y-96491851D01*
X135803011Y-96586590D01*
X135810110Y-96709715D01*
X135811247Y-96714761D01*
X135811248Y-96714767D01*
X135831119Y-96802939D01*
X135859222Y-96927639D01*
X135943266Y-97134616D01*
X136059987Y-97325088D01*
X136206250Y-97493938D01*
X136378126Y-97636632D01*
X136448595Y-97677811D01*
X136451445Y-97679476D01*
X136500169Y-97731114D01*
X136513240Y-97800897D01*
X136486509Y-97866669D01*
X136446055Y-97900027D01*
X136433607Y-97906507D01*
X136429474Y-97909610D01*
X136429471Y-97909612D01*
X136405247Y-97927800D01*
X136254965Y-98040635D01*
X136100629Y-98202138D01*
X135974743Y-98386680D01*
X135880688Y-98589305D01*
X135820989Y-98804570D01*
X135797251Y-99026695D01*
X135797548Y-99031848D01*
X135797548Y-99031851D01*
X135803011Y-99126590D01*
X135810110Y-99249715D01*
X135811247Y-99254761D01*
X135811248Y-99254767D01*
X135831119Y-99342939D01*
X135859222Y-99467639D01*
X135943266Y-99674616D01*
X136059987Y-99865088D01*
X136206250Y-100033938D01*
X136378126Y-100176632D01*
X136448595Y-100217811D01*
X136451445Y-100219476D01*
X136500169Y-100271114D01*
X136513240Y-100340897D01*
X136486509Y-100406669D01*
X136446055Y-100440027D01*
X136433607Y-100446507D01*
X136429474Y-100449610D01*
X136429471Y-100449612D01*
X136405247Y-100467800D01*
X136254965Y-100580635D01*
X136100629Y-100742138D01*
X135974743Y-100926680D01*
X135880688Y-101129305D01*
X135820989Y-101344570D01*
X135797251Y-101566695D01*
X135797548Y-101571848D01*
X135797548Y-101571851D01*
X135803011Y-101666590D01*
X135810110Y-101789715D01*
X135811247Y-101794761D01*
X135811248Y-101794767D01*
X135831119Y-101882939D01*
X135859222Y-102007639D01*
X135943266Y-102214616D01*
X136059987Y-102405088D01*
X136206250Y-102573938D01*
X136378126Y-102716632D01*
X136448595Y-102757811D01*
X136451445Y-102759476D01*
X136500169Y-102811114D01*
X136513240Y-102880897D01*
X136486509Y-102946669D01*
X136446055Y-102980027D01*
X136433607Y-102986507D01*
X136429474Y-102989610D01*
X136429471Y-102989612D01*
X136405247Y-103007800D01*
X136254965Y-103120635D01*
X136100629Y-103282138D01*
X135974743Y-103466680D01*
X135880688Y-103669305D01*
X135820989Y-103884570D01*
X135797251Y-104106695D01*
X135797548Y-104111848D01*
X135797548Y-104111851D01*
X135803011Y-104206590D01*
X135810110Y-104329715D01*
X135811247Y-104334761D01*
X135811248Y-104334767D01*
X135831119Y-104422939D01*
X135859222Y-104547639D01*
X135943266Y-104754616D01*
X136059987Y-104945088D01*
X136206250Y-105113938D01*
X136378126Y-105256632D01*
X136448595Y-105297811D01*
X136451445Y-105299476D01*
X136500169Y-105351114D01*
X136513240Y-105420897D01*
X136486509Y-105486669D01*
X136446055Y-105520027D01*
X136433607Y-105526507D01*
X136429474Y-105529610D01*
X136429471Y-105529612D01*
X136405247Y-105547800D01*
X136254965Y-105660635D01*
X136100629Y-105822138D01*
X135974743Y-106006680D01*
X135880688Y-106209305D01*
X135820989Y-106424570D01*
X135797251Y-106646695D01*
X135797548Y-106651848D01*
X135797548Y-106651851D01*
X135803011Y-106746590D01*
X135810110Y-106869715D01*
X135811247Y-106874761D01*
X135811248Y-106874767D01*
X135831119Y-106962939D01*
X135859222Y-107087639D01*
X135943266Y-107294616D01*
X136059987Y-107485088D01*
X136206250Y-107653938D01*
X136378126Y-107796632D01*
X136448595Y-107837811D01*
X136451445Y-107839476D01*
X136500169Y-107891114D01*
X136513240Y-107960897D01*
X136486509Y-108026669D01*
X136446055Y-108060027D01*
X136433607Y-108066507D01*
X136429474Y-108069610D01*
X136429471Y-108069612D01*
X136405247Y-108087800D01*
X136254965Y-108200635D01*
X136100629Y-108362138D01*
X135974743Y-108546680D01*
X135880688Y-108749305D01*
X135820989Y-108964570D01*
X135797251Y-109186695D01*
X135797548Y-109191848D01*
X135797548Y-109191851D01*
X135803011Y-109286590D01*
X135810110Y-109409715D01*
X135811247Y-109414761D01*
X135811248Y-109414767D01*
X135831119Y-109502939D01*
X135859222Y-109627639D01*
X135943266Y-109834616D01*
X136059987Y-110025088D01*
X136206250Y-110193938D01*
X136378126Y-110336632D01*
X136448595Y-110377811D01*
X136451445Y-110379476D01*
X136500169Y-110431114D01*
X136513240Y-110500897D01*
X136486509Y-110566669D01*
X136446055Y-110600027D01*
X136433607Y-110606507D01*
X136429474Y-110609610D01*
X136429471Y-110609612D01*
X136405247Y-110627800D01*
X136254965Y-110740635D01*
X136100629Y-110902138D01*
X135974743Y-111086680D01*
X135880688Y-111289305D01*
X135820989Y-111504570D01*
X135797251Y-111726695D01*
X125820418Y-111726695D01*
X125804852Y-111537361D01*
X125750431Y-111320702D01*
X125661354Y-111115840D01*
X125540014Y-110928277D01*
X125389670Y-110763051D01*
X125385619Y-110759852D01*
X125385615Y-110759848D01*
X125218414Y-110627800D01*
X125218410Y-110627798D01*
X125214359Y-110624598D01*
X125173053Y-110601796D01*
X125123084Y-110551364D01*
X125108312Y-110481921D01*
X125133428Y-110415516D01*
X125160780Y-110388909D01*
X125204603Y-110357650D01*
X125339860Y-110261173D01*
X125498096Y-110103489D01*
X125557594Y-110020689D01*
X125625435Y-109926277D01*
X125628453Y-109922077D01*
X125727430Y-109721811D01*
X125792370Y-109508069D01*
X125821529Y-109286590D01*
X125823156Y-109220000D01*
X125804852Y-108997361D01*
X125750431Y-108780702D01*
X125661354Y-108575840D01*
X125540014Y-108388277D01*
X125389670Y-108223051D01*
X125385619Y-108219852D01*
X125385615Y-108219848D01*
X125218414Y-108087800D01*
X125218410Y-108087798D01*
X125214359Y-108084598D01*
X125173053Y-108061796D01*
X125123084Y-108011364D01*
X125108312Y-107941921D01*
X125133428Y-107875516D01*
X125160780Y-107848909D01*
X125204603Y-107817650D01*
X125339860Y-107721173D01*
X125498096Y-107563489D01*
X125557594Y-107480689D01*
X125625435Y-107386277D01*
X125628453Y-107382077D01*
X125727430Y-107181811D01*
X125792370Y-106968069D01*
X125821529Y-106746590D01*
X125823156Y-106680000D01*
X125804852Y-106457361D01*
X125750431Y-106240702D01*
X125661354Y-106035840D01*
X125540014Y-105848277D01*
X125389670Y-105683051D01*
X125385619Y-105679852D01*
X125385615Y-105679848D01*
X125218414Y-105547800D01*
X125218410Y-105547798D01*
X125214359Y-105544598D01*
X125173053Y-105521796D01*
X125123084Y-105471364D01*
X125108312Y-105401921D01*
X125133428Y-105335516D01*
X125160780Y-105308909D01*
X125204603Y-105277650D01*
X125339860Y-105181173D01*
X125498096Y-105023489D01*
X125557594Y-104940689D01*
X125625435Y-104846277D01*
X125628453Y-104842077D01*
X125727430Y-104641811D01*
X125792370Y-104428069D01*
X125821529Y-104206590D01*
X125823156Y-104140000D01*
X125804852Y-103917361D01*
X125750431Y-103700702D01*
X125661354Y-103495840D01*
X125540014Y-103308277D01*
X125389670Y-103143051D01*
X125385619Y-103139852D01*
X125385615Y-103139848D01*
X125218414Y-103007800D01*
X125218410Y-103007798D01*
X125214359Y-103004598D01*
X125173053Y-102981796D01*
X125123084Y-102931364D01*
X125108312Y-102861921D01*
X125133428Y-102795516D01*
X125160780Y-102768909D01*
X125204603Y-102737650D01*
X125339860Y-102641173D01*
X125498096Y-102483489D01*
X125557594Y-102400689D01*
X125625435Y-102306277D01*
X125628453Y-102302077D01*
X125727430Y-102101811D01*
X125792370Y-101888069D01*
X125821529Y-101666590D01*
X125823156Y-101600000D01*
X125804852Y-101377361D01*
X125750431Y-101160702D01*
X125661354Y-100955840D01*
X125540014Y-100768277D01*
X125389670Y-100603051D01*
X125385619Y-100599852D01*
X125385615Y-100599848D01*
X125218414Y-100467800D01*
X125218410Y-100467798D01*
X125214359Y-100464598D01*
X125173053Y-100441796D01*
X125123084Y-100391364D01*
X125108312Y-100321921D01*
X125133428Y-100255516D01*
X125160780Y-100228909D01*
X125204603Y-100197650D01*
X125339860Y-100101173D01*
X125498096Y-99943489D01*
X125557594Y-99860689D01*
X125625435Y-99766277D01*
X125628453Y-99762077D01*
X125727430Y-99561811D01*
X125792370Y-99348069D01*
X125821529Y-99126590D01*
X125823156Y-99060000D01*
X125804852Y-98837361D01*
X125750431Y-98620702D01*
X125661354Y-98415840D01*
X125540014Y-98228277D01*
X125389670Y-98063051D01*
X125385619Y-98059852D01*
X125385615Y-98059848D01*
X125218414Y-97927800D01*
X125218410Y-97927798D01*
X125214359Y-97924598D01*
X125173053Y-97901796D01*
X125123084Y-97851364D01*
X125108312Y-97781921D01*
X125133428Y-97715516D01*
X125160780Y-97688909D01*
X125204603Y-97657650D01*
X125339860Y-97561173D01*
X125498096Y-97403489D01*
X125557594Y-97320689D01*
X125625435Y-97226277D01*
X125628453Y-97222077D01*
X125727430Y-97021811D01*
X125792370Y-96808069D01*
X125821529Y-96586590D01*
X125823156Y-96520000D01*
X125804852Y-96297361D01*
X125750431Y-96080702D01*
X125661354Y-95875840D01*
X125540014Y-95688277D01*
X125389670Y-95523051D01*
X125385619Y-95519852D01*
X125385615Y-95519848D01*
X125218414Y-95387800D01*
X125218410Y-95387798D01*
X125214359Y-95384598D01*
X125173053Y-95361796D01*
X125123084Y-95311364D01*
X125108312Y-95241921D01*
X125133428Y-95175516D01*
X125160780Y-95148909D01*
X125204603Y-95117650D01*
X125339860Y-95021173D01*
X125498096Y-94863489D01*
X125557594Y-94780689D01*
X125625435Y-94686277D01*
X125628453Y-94682077D01*
X125727430Y-94481811D01*
X125792370Y-94268069D01*
X125821529Y-94046590D01*
X125823156Y-93980000D01*
X125804852Y-93757361D01*
X125750431Y-93540702D01*
X125661354Y-93335840D01*
X125540014Y-93148277D01*
X125389670Y-92983051D01*
X125385619Y-92979852D01*
X125385615Y-92979848D01*
X125218414Y-92847800D01*
X125218410Y-92847798D01*
X125214359Y-92844598D01*
X125172569Y-92821529D01*
X125122598Y-92771097D01*
X125107826Y-92701654D01*
X125132942Y-92635248D01*
X125160294Y-92608641D01*
X125335328Y-92483792D01*
X125343200Y-92477139D01*
X125494052Y-92326812D01*
X125500730Y-92318965D01*
X125625003Y-92146020D01*
X125630313Y-92137183D01*
X125724670Y-91946267D01*
X125728469Y-91936672D01*
X125790377Y-91732910D01*
X125792555Y-91722837D01*
X125793986Y-91711962D01*
X125791775Y-91697778D01*
X125778617Y-91694000D01*
X123143225Y-91694000D01*
X123129694Y-91697973D01*
X123128257Y-91707966D01*
X123158565Y-91842446D01*
X123161645Y-91852275D01*
X123241770Y-92049603D01*
X123246413Y-92058794D01*
X123357694Y-92240388D01*
X123363777Y-92248699D01*
X123503213Y-92409667D01*
X123510580Y-92416883D01*
X123674434Y-92552916D01*
X123682881Y-92558831D01*
X123751969Y-92599203D01*
X123800693Y-92650842D01*
X123813764Y-92720625D01*
X123787033Y-92786396D01*
X123746584Y-92819752D01*
X123733607Y-92826507D01*
X123729474Y-92829610D01*
X123729471Y-92829612D01*
X123705247Y-92847800D01*
X123554965Y-92960635D01*
X123400629Y-93122138D01*
X123274743Y-93306680D01*
X123180688Y-93509305D01*
X123120989Y-93724570D01*
X123097251Y-93946695D01*
X123097548Y-93951848D01*
X123097548Y-93951851D01*
X123103011Y-94046590D01*
X123110110Y-94169715D01*
X123111247Y-94174761D01*
X123111248Y-94174767D01*
X123131119Y-94262939D01*
X123159222Y-94387639D01*
X123243266Y-94594616D01*
X123359987Y-94785088D01*
X123506250Y-94953938D01*
X123678126Y-95096632D01*
X123748595Y-95137811D01*
X123751445Y-95139476D01*
X123800169Y-95191114D01*
X123813240Y-95260897D01*
X123786509Y-95326669D01*
X123746055Y-95360027D01*
X123733607Y-95366507D01*
X123729474Y-95369610D01*
X123729471Y-95369612D01*
X123705247Y-95387800D01*
X123554965Y-95500635D01*
X123400629Y-95662138D01*
X123274743Y-95846680D01*
X123180688Y-96049305D01*
X123120989Y-96264570D01*
X123097251Y-96486695D01*
X123097548Y-96491848D01*
X123097548Y-96491851D01*
X123103011Y-96586590D01*
X123110110Y-96709715D01*
X123111247Y-96714761D01*
X123111248Y-96714767D01*
X123131119Y-96802939D01*
X123159222Y-96927639D01*
X123243266Y-97134616D01*
X123359987Y-97325088D01*
X123506250Y-97493938D01*
X123678126Y-97636632D01*
X123748595Y-97677811D01*
X123751445Y-97679476D01*
X123800169Y-97731114D01*
X123813240Y-97800897D01*
X123786509Y-97866669D01*
X123746055Y-97900027D01*
X123733607Y-97906507D01*
X123729474Y-97909610D01*
X123729471Y-97909612D01*
X123705247Y-97927800D01*
X123554965Y-98040635D01*
X123400629Y-98202138D01*
X123274743Y-98386680D01*
X123180688Y-98589305D01*
X123120989Y-98804570D01*
X123097251Y-99026695D01*
X123097548Y-99031848D01*
X123097548Y-99031851D01*
X123103011Y-99126590D01*
X123110110Y-99249715D01*
X123111247Y-99254761D01*
X123111248Y-99254767D01*
X123131119Y-99342939D01*
X123159222Y-99467639D01*
X123243266Y-99674616D01*
X123359987Y-99865088D01*
X123506250Y-100033938D01*
X123678126Y-100176632D01*
X123748595Y-100217811D01*
X123751445Y-100219476D01*
X123800169Y-100271114D01*
X123813240Y-100340897D01*
X123786509Y-100406669D01*
X123746055Y-100440027D01*
X123733607Y-100446507D01*
X123729474Y-100449610D01*
X123729471Y-100449612D01*
X123705247Y-100467800D01*
X123554965Y-100580635D01*
X123400629Y-100742138D01*
X123274743Y-100926680D01*
X123180688Y-101129305D01*
X123120989Y-101344570D01*
X123097251Y-101566695D01*
X123097548Y-101571848D01*
X123097548Y-101571851D01*
X123103011Y-101666590D01*
X123110110Y-101789715D01*
X123111247Y-101794761D01*
X123111248Y-101794767D01*
X123131119Y-101882939D01*
X123159222Y-102007639D01*
X123243266Y-102214616D01*
X123359987Y-102405088D01*
X123506250Y-102573938D01*
X123678126Y-102716632D01*
X123748595Y-102757811D01*
X123751445Y-102759476D01*
X123800169Y-102811114D01*
X123813240Y-102880897D01*
X123786509Y-102946669D01*
X123746055Y-102980027D01*
X123733607Y-102986507D01*
X123729474Y-102989610D01*
X123729471Y-102989612D01*
X123705247Y-103007800D01*
X123554965Y-103120635D01*
X123400629Y-103282138D01*
X123274743Y-103466680D01*
X123180688Y-103669305D01*
X123120989Y-103884570D01*
X123097251Y-104106695D01*
X123097548Y-104111848D01*
X123097548Y-104111851D01*
X123103011Y-104206590D01*
X123110110Y-104329715D01*
X123111247Y-104334761D01*
X123111248Y-104334767D01*
X123131119Y-104422939D01*
X123159222Y-104547639D01*
X123243266Y-104754616D01*
X123359987Y-104945088D01*
X123506250Y-105113938D01*
X123678126Y-105256632D01*
X123748595Y-105297811D01*
X123751445Y-105299476D01*
X123800169Y-105351114D01*
X123813240Y-105420897D01*
X123786509Y-105486669D01*
X123746055Y-105520027D01*
X123733607Y-105526507D01*
X123729474Y-105529610D01*
X123729471Y-105529612D01*
X123705247Y-105547800D01*
X123554965Y-105660635D01*
X123400629Y-105822138D01*
X123274743Y-106006680D01*
X123180688Y-106209305D01*
X123120989Y-106424570D01*
X123097251Y-106646695D01*
X123097548Y-106651848D01*
X123097548Y-106651851D01*
X123103011Y-106746590D01*
X123110110Y-106869715D01*
X123111247Y-106874761D01*
X123111248Y-106874767D01*
X123131119Y-106962939D01*
X123159222Y-107087639D01*
X123243266Y-107294616D01*
X123359987Y-107485088D01*
X123506250Y-107653938D01*
X123678126Y-107796632D01*
X123748595Y-107837811D01*
X123751445Y-107839476D01*
X123800169Y-107891114D01*
X123813240Y-107960897D01*
X123786509Y-108026669D01*
X123746055Y-108060027D01*
X123733607Y-108066507D01*
X123729474Y-108069610D01*
X123729471Y-108069612D01*
X123705247Y-108087800D01*
X123554965Y-108200635D01*
X123400629Y-108362138D01*
X123274743Y-108546680D01*
X123180688Y-108749305D01*
X123120989Y-108964570D01*
X123097251Y-109186695D01*
X123097548Y-109191848D01*
X123097548Y-109191851D01*
X123103011Y-109286590D01*
X123110110Y-109409715D01*
X123111247Y-109414761D01*
X123111248Y-109414767D01*
X123131119Y-109502939D01*
X123159222Y-109627639D01*
X123243266Y-109834616D01*
X123359987Y-110025088D01*
X123506250Y-110193938D01*
X123678126Y-110336632D01*
X123748595Y-110377811D01*
X123751445Y-110379476D01*
X123800169Y-110431114D01*
X123813240Y-110500897D01*
X123786509Y-110566669D01*
X123746055Y-110600027D01*
X123733607Y-110606507D01*
X123729474Y-110609610D01*
X123729471Y-110609612D01*
X123705247Y-110627800D01*
X123554965Y-110740635D01*
X123400629Y-110902138D01*
X123274743Y-111086680D01*
X123180688Y-111289305D01*
X123120989Y-111504570D01*
X123097251Y-111726695D01*
X122428500Y-111726695D01*
X122428500Y-89794669D01*
X123102001Y-89794669D01*
X123102371Y-89801490D01*
X123107895Y-89852352D01*
X123111521Y-89867604D01*
X123156676Y-89988054D01*
X123165214Y-90003649D01*
X123241715Y-90105724D01*
X123254276Y-90118285D01*
X123356351Y-90194786D01*
X123371946Y-90203324D01*
X123481337Y-90244333D01*
X123538101Y-90286975D01*
X123562801Y-90353536D01*
X123547594Y-90422885D01*
X123528201Y-90449366D01*
X123404590Y-90578717D01*
X123398104Y-90586727D01*
X123278098Y-90762649D01*
X123273000Y-90771623D01*
X123183338Y-90964783D01*
X123179775Y-90974470D01*
X123124389Y-91174183D01*
X123125912Y-91182607D01*
X123138292Y-91186000D01*
X124187885Y-91186000D01*
X124203124Y-91181525D01*
X124204329Y-91180135D01*
X124206000Y-91172452D01*
X124206000Y-91167885D01*
X124714000Y-91167885D01*
X124718475Y-91183124D01*
X124719865Y-91184329D01*
X124727548Y-91186000D01*
X125778344Y-91186000D01*
X125791875Y-91182027D01*
X125793180Y-91172947D01*
X125751214Y-91005875D01*
X125747894Y-90996124D01*
X125662972Y-90800814D01*
X125658105Y-90791739D01*
X125542426Y-90612926D01*
X125536136Y-90604757D01*
X125391931Y-90446279D01*
X125360879Y-90382433D01*
X125369273Y-90311934D01*
X125414450Y-90257166D01*
X125440894Y-90243497D01*
X125548054Y-90203324D01*
X125563649Y-90194786D01*
X125665724Y-90118285D01*
X125678285Y-90105724D01*
X125754786Y-90003649D01*
X125763324Y-89988054D01*
X125808478Y-89867606D01*
X125812105Y-89852351D01*
X125817631Y-89801486D01*
X125818000Y-89794672D01*
X125818000Y-89794669D01*
X135802001Y-89794669D01*
X135802371Y-89801490D01*
X135807895Y-89852352D01*
X135811521Y-89867604D01*
X135856676Y-89988054D01*
X135865214Y-90003649D01*
X135941715Y-90105724D01*
X135954276Y-90118285D01*
X136056351Y-90194786D01*
X136071946Y-90203324D01*
X136181337Y-90244333D01*
X136238101Y-90286975D01*
X136262801Y-90353536D01*
X136247594Y-90422885D01*
X136228201Y-90449366D01*
X136104590Y-90578717D01*
X136098104Y-90586727D01*
X135978098Y-90762649D01*
X135973000Y-90771623D01*
X135883338Y-90964783D01*
X135879775Y-90974470D01*
X135824389Y-91174183D01*
X135825912Y-91182607D01*
X135838292Y-91186000D01*
X136887885Y-91186000D01*
X136903124Y-91181525D01*
X136904329Y-91180135D01*
X136906000Y-91172452D01*
X136906000Y-91167885D01*
X137414000Y-91167885D01*
X137418475Y-91183124D01*
X137419865Y-91184329D01*
X137427548Y-91186000D01*
X138478344Y-91186000D01*
X138491875Y-91182027D01*
X138493180Y-91172947D01*
X138451214Y-91005875D01*
X138447894Y-90996124D01*
X138362972Y-90800814D01*
X138358105Y-90791739D01*
X138242426Y-90612926D01*
X138236136Y-90604757D01*
X138091931Y-90446279D01*
X138060879Y-90382433D01*
X138069273Y-90311934D01*
X138114450Y-90257166D01*
X138140894Y-90243497D01*
X138248054Y-90203324D01*
X138263649Y-90194786D01*
X138365724Y-90118285D01*
X138378285Y-90105724D01*
X138454786Y-90003649D01*
X138463324Y-89988054D01*
X138508478Y-89867606D01*
X138512105Y-89852351D01*
X138517631Y-89801486D01*
X138518000Y-89794672D01*
X138518000Y-89172115D01*
X138513525Y-89156876D01*
X138512135Y-89155671D01*
X138504452Y-89154000D01*
X137432115Y-89154000D01*
X137416876Y-89158475D01*
X137415671Y-89159865D01*
X137414000Y-89167548D01*
X137414000Y-91167885D01*
X136906000Y-91167885D01*
X136906000Y-89172115D01*
X136901525Y-89156876D01*
X136900135Y-89155671D01*
X136892452Y-89154000D01*
X135820116Y-89154000D01*
X135804877Y-89158475D01*
X135803672Y-89159865D01*
X135802001Y-89167548D01*
X135802001Y-89794669D01*
X125818000Y-89794669D01*
X125818000Y-89172115D01*
X125813525Y-89156876D01*
X125812135Y-89155671D01*
X125804452Y-89154000D01*
X124732115Y-89154000D01*
X124716876Y-89158475D01*
X124715671Y-89159865D01*
X124714000Y-89167548D01*
X124714000Y-91167885D01*
X124206000Y-91167885D01*
X124206000Y-89172115D01*
X124201525Y-89156876D01*
X124200135Y-89155671D01*
X124192452Y-89154000D01*
X123120116Y-89154000D01*
X123104877Y-89158475D01*
X123103672Y-89159865D01*
X123102001Y-89167548D01*
X123102001Y-89794669D01*
X122428500Y-89794669D01*
X122428500Y-88627885D01*
X123102000Y-88627885D01*
X123106475Y-88643124D01*
X123107865Y-88644329D01*
X123115548Y-88646000D01*
X124187885Y-88646000D01*
X124203124Y-88641525D01*
X124204329Y-88640135D01*
X124206000Y-88632452D01*
X124206000Y-88627885D01*
X124714000Y-88627885D01*
X124718475Y-88643124D01*
X124719865Y-88644329D01*
X124727548Y-88646000D01*
X125799884Y-88646000D01*
X125815123Y-88641525D01*
X125816328Y-88640135D01*
X125817999Y-88632452D01*
X125817999Y-88627885D01*
X135802000Y-88627885D01*
X135806475Y-88643124D01*
X135807865Y-88644329D01*
X135815548Y-88646000D01*
X136887885Y-88646000D01*
X136903124Y-88641525D01*
X136904329Y-88640135D01*
X136906000Y-88632452D01*
X136906000Y-88627885D01*
X137414000Y-88627885D01*
X137418475Y-88643124D01*
X137419865Y-88644329D01*
X137427548Y-88646000D01*
X138499884Y-88646000D01*
X138515123Y-88641525D01*
X138516328Y-88640135D01*
X138517999Y-88632452D01*
X138517999Y-88005331D01*
X138517629Y-87998510D01*
X138512105Y-87947648D01*
X138508479Y-87932396D01*
X138463324Y-87811946D01*
X138454786Y-87796351D01*
X138378285Y-87694276D01*
X138365724Y-87681715D01*
X138263649Y-87605214D01*
X138248054Y-87596676D01*
X138127606Y-87551522D01*
X138112351Y-87547895D01*
X138061486Y-87542369D01*
X138054672Y-87542000D01*
X137432115Y-87542000D01*
X137416876Y-87546475D01*
X137415671Y-87547865D01*
X137414000Y-87555548D01*
X137414000Y-88627885D01*
X136906000Y-88627885D01*
X136906000Y-87560116D01*
X136901525Y-87544877D01*
X136900135Y-87543672D01*
X136892452Y-87542001D01*
X136265331Y-87542001D01*
X136258510Y-87542371D01*
X136207648Y-87547895D01*
X136192396Y-87551521D01*
X136071946Y-87596676D01*
X136056351Y-87605214D01*
X135954276Y-87681715D01*
X135941715Y-87694276D01*
X135865214Y-87796351D01*
X135856676Y-87811946D01*
X135811522Y-87932394D01*
X135807895Y-87947649D01*
X135802369Y-87998514D01*
X135802000Y-88005328D01*
X135802000Y-88627885D01*
X125817999Y-88627885D01*
X125817999Y-88005331D01*
X125817629Y-87998510D01*
X125812105Y-87947648D01*
X125808479Y-87932396D01*
X125763324Y-87811946D01*
X125754786Y-87796351D01*
X125678285Y-87694276D01*
X125665724Y-87681715D01*
X125563649Y-87605214D01*
X125548054Y-87596676D01*
X125427606Y-87551522D01*
X125412351Y-87547895D01*
X125361486Y-87542369D01*
X125354672Y-87542000D01*
X124732115Y-87542000D01*
X124716876Y-87546475D01*
X124715671Y-87547865D01*
X124714000Y-87555548D01*
X124714000Y-88627885D01*
X124206000Y-88627885D01*
X124206000Y-87560116D01*
X124201525Y-87544877D01*
X124200135Y-87543672D01*
X124192452Y-87542001D01*
X123565331Y-87542001D01*
X123558510Y-87542371D01*
X123507648Y-87547895D01*
X123492396Y-87551521D01*
X123371946Y-87596676D01*
X123356351Y-87605214D01*
X123254276Y-87681715D01*
X123241715Y-87694276D01*
X123165214Y-87796351D01*
X123156676Y-87811946D01*
X123111522Y-87932394D01*
X123107895Y-87947649D01*
X123102369Y-87998514D01*
X123102000Y-88005328D01*
X123102000Y-88627885D01*
X122428500Y-88627885D01*
X122428500Y-87683250D01*
X122430246Y-87662345D01*
X122432770Y-87647344D01*
X122432770Y-87647341D01*
X122433576Y-87642552D01*
X122433729Y-87630000D01*
X122432788Y-87623429D01*
X122432123Y-87593218D01*
X122441916Y-87493789D01*
X122446733Y-87469568D01*
X122482866Y-87350454D01*
X122492315Y-87327645D01*
X122550987Y-87217876D01*
X122564705Y-87197345D01*
X122643671Y-87101124D01*
X122661124Y-87083671D01*
X122757345Y-87004705D01*
X122777876Y-86990987D01*
X122887645Y-86932315D01*
X122910454Y-86922866D01*
X123029568Y-86886733D01*
X123053789Y-86881916D01*
X123149809Y-86872459D01*
X123165868Y-86872909D01*
X123165877Y-86872200D01*
X123174853Y-86872310D01*
X123183724Y-86873691D01*
X123192626Y-86872527D01*
X123192628Y-86872527D01*
X123209059Y-86870378D01*
X123215286Y-86869564D01*
X123231621Y-86868500D01*
X138380633Y-86868500D01*
X138400018Y-86870000D01*
G37*
G04 #@! TD.AperFunction*
M02*
