M48
; DRILL file {KiCad (6.0.7)} date Sun Jan 29 13:56:54 2023
; FORMAT={-:-/ absolute / metric / decimal}
; #@! TF.CreationDate,2023-01-29T13:56:54+08:00
; #@! TF.GenerationSoftware,Kicad,Pcbnew,(6.0.7)
; #@! TF.FileFunction,Plated,1,2,PTH
FMAT,2
METRIC
; #@! TA.AperFunction,Plated,PTH,ViaDrill
T1C0.300
; #@! TA.AperFunction,Plated,PTH,ComponentDrill
T2C1.000
; #@! TA.AperFunction,Plated,PTH,ComponentDrill
T3C1.300
%
G90
G05
T1
X146.088Y-70.014
X152.7Y-94.9
T2
X127.0Y-70.305
X127.0Y-72.845
X127.0Y-75.385
X127.0Y-77.925
X127.0Y-80.465
X127.0Y-83.005
X127.0Y-85.545
X127.0Y-88.085
X127.0Y-90.625
X127.0Y-93.165
X127.0Y-95.705
X127.0Y-98.245
X127.0Y-100.785
X127.0Y-103.325
X127.0Y-105.865
X127.0Y-112.0
X127.0Y-114.54
X127.0Y-117.08
X127.0Y-119.62
X130.745Y-70.305
X130.745Y-72.845
X130.745Y-75.385
X130.745Y-77.925
X130.745Y-80.465
X130.745Y-83.005
X130.745Y-85.545
X130.745Y-88.085
X130.745Y-90.625
X130.745Y-93.165
X130.745Y-95.705
X130.745Y-98.245
X130.745Y-100.785
X130.745Y-103.325
X130.745Y-105.865
X133.365Y-132.35
X133.365Y-134.89
X135.905Y-132.35
X135.905Y-134.89
X138.445Y-132.35
X138.445Y-134.89
X140.985Y-132.35
X140.985Y-134.89
X143.525Y-132.35
X143.525Y-134.89
X146.065Y-132.35
X146.065Y-134.89
X148.605Y-132.35
X148.605Y-134.89
X151.145Y-132.35
X151.145Y-134.89
X153.685Y-132.35
X153.685Y-134.89
X154.0Y-72.0
X154.0Y-74.54
X154.0Y-77.08
X154.0Y-79.62
X154.0Y-82.16
X154.0Y-84.7
X154.0Y-87.24
X154.0Y-89.78
X156.225Y-132.35
X156.225Y-134.89
X156.54Y-72.0
X156.54Y-74.54
X156.54Y-77.08
X156.54Y-79.62
X156.54Y-82.16
X156.54Y-84.7
X156.54Y-87.24
X156.54Y-89.78
X158.765Y-132.35
X158.765Y-134.89
X159.08Y-72.0
X159.08Y-74.54
X159.08Y-77.08
X159.08Y-79.62
X159.08Y-82.16
X159.08Y-84.7
X159.08Y-87.24
X159.08Y-89.78
X161.305Y-132.35
X161.305Y-134.89
X163.845Y-132.35
X163.845Y-134.89
X165.953Y-70.305
X165.953Y-72.845
X165.953Y-75.385
X165.953Y-77.925
X165.953Y-80.465
X165.953Y-83.005
X165.953Y-85.545
X165.953Y-88.085
X165.953Y-90.625
X165.953Y-93.165
X165.953Y-95.705
X165.953Y-98.245
X165.953Y-100.785
X165.953Y-103.325
X165.953Y-105.865
X170.18Y-70.305
X170.18Y-72.845
X170.18Y-75.385
X170.18Y-77.925
X170.18Y-80.465
X170.18Y-83.005
X170.18Y-85.545
X170.18Y-88.085
X170.18Y-90.625
X170.18Y-93.165
X170.18Y-95.705
X170.18Y-98.245
X170.18Y-100.785
X170.18Y-103.325
X170.18Y-105.865
X170.18Y-112.0
X170.18Y-114.54
X170.18Y-117.08
X170.18Y-119.62
T3
X160.0Y-113.0
X160.0Y-118.0
T0
M30
