G04 #@! TF.GenerationSoftware,KiCad,Pcbnew,(6.0.7)*
G04 #@! TF.CreationDate,2023-01-29T13:56:44+08:00*
G04 #@! TF.ProjectId,mainBoard,6d61696e-426f-4617-9264-2e6b69636164,rev?*
G04 #@! TF.SameCoordinates,Original*
G04 #@! TF.FileFunction,Soldermask,Top*
G04 #@! TF.FilePolarity,Negative*
%FSLAX46Y46*%
G04 Gerber Fmt 4.6, Leading zero omitted, Abs format (unit mm)*
G04 Created by KiCad (PCBNEW (6.0.7)) date 2023-01-29 13:56:44*
%MOMM*%
%LPD*%
G01*
G04 APERTURE LIST*
G04 Aperture macros list*
%AMRoundRect*
0 Rectangle with rounded corners*
0 $1 Rounding radius*
0 $2 $3 $4 $5 $6 $7 $8 $9 X,Y pos of 4 corners*
0 Add a 4 corners polygon primitive as box body*
4,1,4,$2,$3,$4,$5,$6,$7,$8,$9,$2,$3,0*
0 Add four circle primitives for the rounded corners*
1,1,$1+$1,$2,$3*
1,1,$1+$1,$4,$5*
1,1,$1+$1,$6,$7*
1,1,$1+$1,$8,$9*
0 Add four rect primitives between the rounded corners*
20,1,$1+$1,$2,$3,$4,$5,0*
20,1,$1+$1,$4,$5,$6,$7,0*
20,1,$1+$1,$6,$7,$8,$9,0*
20,1,$1+$1,$8,$9,$2,$3,0*%
G04 Aperture macros list end*
%ADD10R,1.700000X1.700000*%
%ADD11O,1.700000X1.700000*%
%ADD12C,3.000000*%
%ADD13RoundRect,0.425000X-0.425000X-0.425000X0.425000X-0.425000X0.425000X0.425000X-0.425000X0.425000X0*%
%ADD14C,1.700000*%
%ADD15C,2.100000*%
%ADD16R,1.000000X1.500000*%
%ADD17R,2.600000X2.600000*%
%ADD18C,2.600000*%
G04 APERTURE END LIST*
D10*
X127000000Y-70305000D03*
D11*
X127000000Y-72845000D03*
X127000000Y-75385000D03*
X127000000Y-77925000D03*
X127000000Y-80465000D03*
X127000000Y-83005000D03*
X127000000Y-85545000D03*
X127000000Y-88085000D03*
X127000000Y-90625000D03*
X127000000Y-93165000D03*
X127000000Y-95705000D03*
X127000000Y-98245000D03*
X127000000Y-100785000D03*
X127000000Y-103325000D03*
X127000000Y-105865000D03*
D12*
X170180000Y-137160000D03*
D13*
X165953000Y-70305000D03*
D14*
X165953000Y-72845000D03*
X165953000Y-75385000D03*
X165953000Y-77925000D03*
X165953000Y-80465000D03*
X165953000Y-83005000D03*
X165953000Y-85545000D03*
X165953000Y-88085000D03*
X165953000Y-90625000D03*
X165953000Y-93165000D03*
X165953000Y-95705000D03*
X165953000Y-98245000D03*
X165953000Y-100785000D03*
X165953000Y-103325000D03*
X165953000Y-105865000D03*
X130745000Y-70305000D03*
X130745000Y-72845000D03*
X130745000Y-75385000D03*
X130745000Y-77925000D03*
X130745000Y-80465000D03*
X130745000Y-83005000D03*
X130745000Y-85545000D03*
X130745000Y-88085000D03*
X130745000Y-90625000D03*
X130745000Y-93165000D03*
X130745000Y-95705000D03*
X130745000Y-98245000D03*
X130745000Y-100785000D03*
X130745000Y-103325000D03*
X130745000Y-105865000D03*
D12*
X127000000Y-137160000D03*
X127000000Y-60960000D03*
X161000000Y-61000000D03*
D10*
X170180000Y-70305000D03*
D11*
X170180000Y-72845000D03*
X170180000Y-75385000D03*
X170180000Y-77925000D03*
X170180000Y-80465000D03*
X170180000Y-83005000D03*
X170180000Y-85545000D03*
X170180000Y-88085000D03*
X170180000Y-90625000D03*
X170180000Y-93165000D03*
X170180000Y-95705000D03*
X170180000Y-98245000D03*
X170180000Y-100785000D03*
X170180000Y-103325000D03*
X170180000Y-105865000D03*
D15*
X146100000Y-61200000D03*
D10*
X170180000Y-112000000D03*
D11*
X170180000Y-114540000D03*
X170180000Y-117080000D03*
X170180000Y-119620000D03*
D12*
X170180000Y-60960000D03*
D10*
X127000000Y-112000000D03*
D11*
X127000000Y-114540000D03*
X127000000Y-117080000D03*
X127000000Y-119620000D03*
D15*
X151180000Y-61200000D03*
D16*
X133650000Y-66000000D03*
X132350000Y-66000000D03*
D10*
X154000000Y-72000000D03*
D11*
X154000000Y-74540000D03*
X154000000Y-77080000D03*
X154000000Y-79620000D03*
X154000000Y-82160000D03*
X154000000Y-84700000D03*
X154000000Y-87240000D03*
X154000000Y-89780000D03*
D10*
X133365000Y-132350000D03*
D11*
X135905000Y-132350000D03*
X138445000Y-132350000D03*
X140985000Y-132350000D03*
X143525000Y-132350000D03*
X146065000Y-132350000D03*
X148605000Y-132350000D03*
X151145000Y-132350000D03*
X153685000Y-132350000D03*
X156225000Y-132350000D03*
X158765000Y-132350000D03*
X161305000Y-132350000D03*
X163845000Y-132350000D03*
X133365000Y-134890000D03*
X135905000Y-134890000D03*
X138445000Y-134890000D03*
X140985000Y-134890000D03*
X143525000Y-134890000D03*
X146065000Y-134890000D03*
X148605000Y-134890000D03*
X151145000Y-134890000D03*
X153685000Y-134890000D03*
X156225000Y-134890000D03*
X158765000Y-134890000D03*
X161305000Y-134890000D03*
X163845000Y-134890000D03*
D17*
X160000000Y-118000000D03*
D18*
X160000000Y-113000000D03*
D10*
X156540000Y-72000000D03*
D11*
X156540000Y-74540000D03*
X156540000Y-77080000D03*
X156540000Y-79620000D03*
X156540000Y-82160000D03*
X156540000Y-84700000D03*
X156540000Y-87240000D03*
X156540000Y-89780000D03*
D10*
X159080000Y-72000000D03*
D11*
X159080000Y-74540000D03*
X159080000Y-77080000D03*
X159080000Y-79620000D03*
X159080000Y-82160000D03*
X159080000Y-84700000D03*
X159080000Y-87240000D03*
X159080000Y-89780000D03*
M02*
