M48
; DRILL file {KiCad (6.0.7)} date Mon Apr 10 20:46:57 2023
; FORMAT={-:-/ absolute / metric / decimal}
; #@! TF.CreationDate,2023-04-10T20:46:57+08:00
; #@! TF.GenerationSoftware,Kicad,Pcbnew,(6.0.7)
; #@! TF.FileFunction,Plated,1,2,PTH
FMAT,2
METRIC
; #@! TA.AperFunction,Plated,PTH,ViaDrill
T1C0.300
; #@! TA.AperFunction,Plated,PTH,ComponentDrill
T2C1.000
%
G90
G05
T1
X130.81Y-89.535
X130.81Y-93.345
X130.81Y-97.155
X130.81Y-100.965
X130.81Y-104.775
X130.81Y-108.585
X130.81Y-112.395
X133.35Y-91.44
X133.35Y-94.615
X133.35Y-98.425
X133.35Y-102.235
X133.35Y-106.045
X133.35Y-109.855
X133.35Y-113.665
X134.94Y-117.155
T2
X124.46Y-88.9
X124.46Y-91.44
X124.46Y-93.98
X124.46Y-96.52
X124.46Y-99.06
X124.46Y-101.6
X124.46Y-104.14
X124.46Y-106.68
X124.46Y-109.22
X124.46Y-111.76
X124.46Y-114.3
X124.46Y-116.84
X137.16Y-88.9
X137.16Y-91.44
X137.16Y-93.98
X137.16Y-96.52
X137.16Y-99.06
X137.16Y-101.6
X137.16Y-104.14
X137.16Y-106.68
X137.16Y-109.22
X137.16Y-111.76
X137.16Y-114.3
X137.16Y-116.84
T0
M30
