G04 #@! TF.GenerationSoftware,KiCad,Pcbnew,(6.0.7)*
G04 #@! TF.CreationDate,2023-04-10T20:46:38+08:00*
G04 #@! TF.ProjectId,switchNMos1,73776974-6368-44e4-9d6f-73312e6b6963,rev?*
G04 #@! TF.SameCoordinates,Original*
G04 #@! TF.FileFunction,Legend,Bot*
G04 #@! TF.FilePolarity,Positive*
%FSLAX46Y46*%
G04 Gerber Fmt 4.6, Leading zero omitted, Abs format (unit mm)*
G04 Created by KiCad (PCBNEW (6.0.7)) date 2023-04-10 20:46:38*
%MOMM*%
%LPD*%
G01*
G04 APERTURE LIST*
%ADD10C,0.150000*%
%ADD11C,0.120000*%
%ADD12R,1.700000X1.700000*%
%ADD13O,1.700000X1.700000*%
G04 APERTURE END LIST*
D10*
X128579619Y-111283238D02*
X129579619Y-111283238D01*
X128579619Y-110711809D02*
X129151047Y-111140380D01*
X129579619Y-110711809D02*
X129008190Y-111283238D01*
X128627238Y-109902285D02*
X128579619Y-109997523D01*
X128579619Y-110188000D01*
X128627238Y-110283238D01*
X128722476Y-110330857D01*
X129103428Y-110330857D01*
X129198666Y-110283238D01*
X129246285Y-110188000D01*
X129246285Y-109997523D01*
X129198666Y-109902285D01*
X129103428Y-109854666D01*
X129008190Y-109854666D01*
X128912952Y-110330857D01*
X129246285Y-109521333D02*
X128579619Y-109283238D01*
X129246285Y-109045142D01*
X128579619Y-108664190D02*
X129246285Y-108664190D01*
X129579619Y-108664190D02*
X129532000Y-108711809D01*
X129484380Y-108664190D01*
X129532000Y-108616571D01*
X129579619Y-108664190D01*
X129484380Y-108664190D01*
X129246285Y-108188000D02*
X128579619Y-108188000D01*
X129151047Y-108188000D02*
X129198666Y-108140380D01*
X129246285Y-108045142D01*
X129246285Y-107902285D01*
X129198666Y-107807047D01*
X129103428Y-107759428D01*
X128579619Y-107759428D01*
X129579619Y-107235619D02*
X129389142Y-107330857D01*
X128627238Y-106854666D02*
X128579619Y-106759428D01*
X128579619Y-106568952D01*
X128627238Y-106473714D01*
X128722476Y-106426095D01*
X128770095Y-106426095D01*
X128865333Y-106473714D01*
X128912952Y-106568952D01*
X128912952Y-106711809D01*
X128960571Y-106807047D01*
X129055809Y-106854666D01*
X129103428Y-106854666D01*
X129198666Y-106807047D01*
X129246285Y-106711809D01*
X129246285Y-106568952D01*
X129198666Y-106473714D01*
X128579619Y-104759428D02*
X128579619Y-105235619D01*
X129579619Y-105235619D01*
X128579619Y-103997523D02*
X129103428Y-103997523D01*
X129198666Y-104045142D01*
X129246285Y-104140380D01*
X129246285Y-104330857D01*
X129198666Y-104426095D01*
X128627238Y-103997523D02*
X128579619Y-104092761D01*
X128579619Y-104330857D01*
X128627238Y-104426095D01*
X128722476Y-104473714D01*
X128817714Y-104473714D01*
X128912952Y-104426095D01*
X128960571Y-104330857D01*
X128960571Y-104092761D01*
X129008190Y-103997523D01*
X128579619Y-103521333D02*
X129579619Y-103521333D01*
X129198666Y-103521333D02*
X129246285Y-103426095D01*
X129246285Y-103235619D01*
X129198666Y-103140380D01*
X129151047Y-103092761D01*
X129055809Y-103045142D01*
X128770095Y-103045142D01*
X128674857Y-103092761D01*
X128627238Y-103140380D01*
X128579619Y-103235619D01*
X128579619Y-103426095D01*
X128627238Y-103521333D01*
X131537142Y-111425285D02*
X132737142Y-111425285D01*
X131537142Y-110911000D02*
X132165714Y-110911000D01*
X132280000Y-110968142D01*
X132337142Y-111082428D01*
X132337142Y-111253857D01*
X132280000Y-111368142D01*
X132222857Y-111425285D01*
X132337142Y-110511000D02*
X132337142Y-110053857D01*
X132737142Y-110339571D02*
X131708571Y-110339571D01*
X131594285Y-110282428D01*
X131537142Y-110168142D01*
X131537142Y-110053857D01*
X132337142Y-109825285D02*
X132337142Y-109368142D01*
X132737142Y-109653857D02*
X131708571Y-109653857D01*
X131594285Y-109596714D01*
X131537142Y-109482428D01*
X131537142Y-109368142D01*
X132337142Y-108968142D02*
X131137142Y-108968142D01*
X132280000Y-108968142D02*
X132337142Y-108853857D01*
X132337142Y-108625285D01*
X132280000Y-108511000D01*
X132222857Y-108453857D01*
X132108571Y-108396714D01*
X131765714Y-108396714D01*
X131651428Y-108453857D01*
X131594285Y-108511000D01*
X131537142Y-108625285D01*
X131537142Y-108853857D01*
X131594285Y-108968142D01*
X131594285Y-107939571D02*
X131537142Y-107825285D01*
X131537142Y-107596714D01*
X131594285Y-107482428D01*
X131708571Y-107425285D01*
X131765714Y-107425285D01*
X131880000Y-107482428D01*
X131937142Y-107596714D01*
X131937142Y-107768142D01*
X131994285Y-107882428D01*
X132108571Y-107939571D01*
X132165714Y-107939571D01*
X132280000Y-107882428D01*
X132337142Y-107768142D01*
X132337142Y-107596714D01*
X132280000Y-107482428D01*
X131651428Y-106911000D02*
X131594285Y-106853857D01*
X131537142Y-106911000D01*
X131594285Y-106968142D01*
X131651428Y-106911000D01*
X131537142Y-106911000D01*
X132280000Y-106911000D02*
X132222857Y-106853857D01*
X132165714Y-106911000D01*
X132222857Y-106968142D01*
X132280000Y-106911000D01*
X132165714Y-106911000D01*
X132794285Y-105482428D02*
X131251428Y-106511000D01*
X132794285Y-104225285D02*
X131251428Y-105253857D01*
X132337142Y-103939571D02*
X131537142Y-103711000D01*
X132108571Y-103482428D01*
X131537142Y-103253857D01*
X132337142Y-103025285D01*
X132337142Y-102682428D02*
X131537142Y-102453857D01*
X132108571Y-102225285D01*
X131537142Y-101996714D01*
X132337142Y-101768142D01*
X132337142Y-101425285D02*
X131537142Y-101196714D01*
X132108571Y-100968142D01*
X131537142Y-100739571D01*
X132337142Y-100511000D01*
X131651428Y-100053857D02*
X131594285Y-99996714D01*
X131537142Y-100053857D01*
X131594285Y-100111000D01*
X131651428Y-100053857D01*
X131537142Y-100053857D01*
X131537142Y-99482428D02*
X132337142Y-99482428D01*
X132222857Y-99482428D02*
X132280000Y-99425285D01*
X132337142Y-99311000D01*
X132337142Y-99139571D01*
X132280000Y-99025285D01*
X132165714Y-98968142D01*
X131537142Y-98968142D01*
X132165714Y-98968142D02*
X132280000Y-98911000D01*
X132337142Y-98796714D01*
X132337142Y-98625285D01*
X132280000Y-98511000D01*
X132165714Y-98453857D01*
X131537142Y-98453857D01*
X131537142Y-97368142D02*
X132165714Y-97368142D01*
X132280000Y-97425285D01*
X132337142Y-97539571D01*
X132337142Y-97768142D01*
X132280000Y-97882428D01*
X131594285Y-97368142D02*
X131537142Y-97482428D01*
X131537142Y-97768142D01*
X131594285Y-97882428D01*
X131708571Y-97939571D01*
X131822857Y-97939571D01*
X131937142Y-97882428D01*
X131994285Y-97768142D01*
X131994285Y-97482428D01*
X132051428Y-97368142D01*
X131537142Y-96796714D02*
X132737142Y-96796714D01*
X131994285Y-96682428D02*
X131537142Y-96339571D01*
X132337142Y-96339571D02*
X131880000Y-96796714D01*
X131537142Y-95311000D02*
X132737142Y-95311000D01*
X131594285Y-95311000D02*
X131537142Y-95425285D01*
X131537142Y-95653857D01*
X131594285Y-95768142D01*
X131651428Y-95825285D01*
X131765714Y-95882428D01*
X132108571Y-95882428D01*
X132222857Y-95825285D01*
X132280000Y-95768142D01*
X132337142Y-95653857D01*
X132337142Y-95425285D01*
X132280000Y-95311000D01*
X131594285Y-94282428D02*
X131537142Y-94396714D01*
X131537142Y-94625285D01*
X131594285Y-94739571D01*
X131708571Y-94796714D01*
X132165714Y-94796714D01*
X132280000Y-94739571D01*
X132337142Y-94625285D01*
X132337142Y-94396714D01*
X132280000Y-94282428D01*
X132165714Y-94225285D01*
X132051428Y-94225285D01*
X131937142Y-94796714D01*
X132337142Y-93825285D02*
X131537142Y-93539571D01*
X132337142Y-93253857D01*
X131651428Y-92796714D02*
X131594285Y-92739571D01*
X131537142Y-92796714D01*
X131594285Y-92853857D01*
X131651428Y-92796714D01*
X131537142Y-92796714D01*
X132337142Y-92225285D02*
X131537142Y-92225285D01*
X132222857Y-92225285D02*
X132280000Y-92168142D01*
X132337142Y-92053857D01*
X132337142Y-91882428D01*
X132280000Y-91768142D01*
X132165714Y-91711000D01*
X131537142Y-91711000D01*
X131594285Y-90682428D02*
X131537142Y-90796714D01*
X131537142Y-91025285D01*
X131594285Y-91139571D01*
X131708571Y-91196714D01*
X132165714Y-91196714D01*
X132280000Y-91139571D01*
X132337142Y-91025285D01*
X132337142Y-90796714D01*
X132280000Y-90682428D01*
X132165714Y-90625285D01*
X132051428Y-90625285D01*
X131937142Y-91196714D01*
X132337142Y-90282428D02*
X132337142Y-89825285D01*
X132737142Y-90111000D02*
X131708571Y-90111000D01*
X131594285Y-90053857D01*
X131537142Y-89939571D01*
X131537142Y-89825285D01*
D11*
X138490000Y-90170000D02*
X138490000Y-118170000D01*
X135830000Y-90170000D02*
X135830000Y-118170000D01*
X138490000Y-118170000D02*
X135830000Y-118170000D01*
X137160000Y-87570000D02*
X135830000Y-87570000D01*
X138490000Y-90170000D02*
X135830000Y-90170000D01*
X135830000Y-87570000D02*
X135830000Y-88900000D01*
X125790000Y-90170000D02*
X125790000Y-118170000D01*
X124460000Y-87570000D02*
X123130000Y-87570000D01*
X125790000Y-118170000D02*
X123130000Y-118170000D01*
X125790000Y-90170000D02*
X123130000Y-90170000D01*
X123130000Y-87570000D02*
X123130000Y-88900000D01*
X123130000Y-90170000D02*
X123130000Y-118170000D01*
%LPC*%
D12*
X137160000Y-88900000D03*
D13*
X137160000Y-91440000D03*
X137160000Y-93980000D03*
X137160000Y-96520000D03*
X137160000Y-99060000D03*
X137160000Y-101600000D03*
X137160000Y-104140000D03*
X137160000Y-106680000D03*
X137160000Y-109220000D03*
X137160000Y-111760000D03*
X137160000Y-114300000D03*
X137160000Y-116840000D03*
D12*
X124460000Y-88900000D03*
D13*
X124460000Y-91440000D03*
X124460000Y-93980000D03*
X124460000Y-96520000D03*
X124460000Y-99060000D03*
X124460000Y-101600000D03*
X124460000Y-104140000D03*
X124460000Y-106680000D03*
X124460000Y-109220000D03*
X124460000Y-111760000D03*
X124460000Y-114300000D03*
X124460000Y-116840000D03*
M02*
