G04 #@! TF.GenerationSoftware,KiCad,Pcbnew,(6.0.7)*
G04 #@! TF.CreationDate,2023-01-29T13:56:44+08:00*
G04 #@! TF.ProjectId,mainBoard,6d61696e-426f-4617-9264-2e6b69636164,rev?*
G04 #@! TF.SameCoordinates,Original*
G04 #@! TF.FileFunction,Legend,Bot*
G04 #@! TF.FilePolarity,Positive*
%FSLAX46Y46*%
G04 Gerber Fmt 4.6, Leading zero omitted, Abs format (unit mm)*
G04 Created by KiCad (PCBNEW (6.0.7)) date 2023-01-29 13:56:44*
%MOMM*%
%LPD*%
G01*
G04 APERTURE LIST*
G04 Aperture macros list*
%AMRoundRect*
0 Rectangle with rounded corners*
0 $1 Rounding radius*
0 $2 $3 $4 $5 $6 $7 $8 $9 X,Y pos of 4 corners*
0 Add a 4 corners polygon primitive as box body*
4,1,4,$2,$3,$4,$5,$6,$7,$8,$9,$2,$3,0*
0 Add four circle primitives for the rounded corners*
1,1,$1+$1,$2,$3*
1,1,$1+$1,$4,$5*
1,1,$1+$1,$6,$7*
1,1,$1+$1,$8,$9*
0 Add four rect primitives between the rounded corners*
20,1,$1+$1,$2,$3,$4,$5,0*
20,1,$1+$1,$4,$5,$6,$7,0*
20,1,$1+$1,$6,$7,$8,$9,0*
20,1,$1+$1,$8,$9,$2,$3,0*%
G04 Aperture macros list end*
%ADD10C,0.150000*%
%ADD11C,0.120000*%
%ADD12R,1.700000X1.700000*%
%ADD13O,1.700000X1.700000*%
%ADD14C,3.000000*%
%ADD15RoundRect,0.425000X-0.425000X-0.425000X0.425000X-0.425000X0.425000X0.425000X-0.425000X0.425000X0*%
%ADD16C,1.700000*%
%ADD17C,2.100000*%
%ADD18RoundRect,0.237500X0.237500X-0.250000X0.237500X0.250000X-0.237500X0.250000X-0.237500X-0.250000X0*%
%ADD19RoundRect,0.500000X-0.500000X1.250000X-0.500000X-1.250000X0.500000X-1.250000X0.500000X1.250000X0*%
%ADD20R,1.000000X1.500000*%
%ADD21RoundRect,0.150000X0.587500X0.150000X-0.587500X0.150000X-0.587500X-0.150000X0.587500X-0.150000X0*%
%ADD22RoundRect,0.237500X0.250000X0.237500X-0.250000X0.237500X-0.250000X-0.237500X0.250000X-0.237500X0*%
%ADD23R,2.600000X2.600000*%
%ADD24C,2.600000*%
%ADD25RoundRect,0.250000X0.250000X2.500000X-0.250000X2.500000X-0.250000X-2.500000X0.250000X-2.500000X0*%
%ADD26RoundRect,0.250000X0.550000X1.250000X-0.550000X1.250000X-0.550000X-1.250000X0.550000X-1.250000X0*%
%ADD27RoundRect,0.237500X-0.250000X-0.237500X0.250000X-0.237500X0.250000X0.237500X-0.250000X0.237500X0*%
G04 APERTURE END LIST*
D10*
X141750000Y-122000000D02*
X141750000Y-128250000D01*
X131500000Y-125125000D02*
X164750000Y-125125000D01*
X139250000Y-122000000D02*
X139250000Y-128250000D01*
X131500000Y-122000000D02*
X164750000Y-122000000D01*
X164750000Y-122000000D02*
X164750000Y-128250000D01*
X164750000Y-128250000D02*
X131500000Y-128250000D01*
X131500000Y-128250000D02*
X131500000Y-122000000D01*
X149500000Y-122000000D02*
X149500000Y-128250000D01*
X152000000Y-128250000D02*
X152000000Y-122000000D01*
X157000000Y-122000000D02*
X157000000Y-128250000D01*
X136750000Y-122000000D02*
X136750000Y-128250000D01*
X154500000Y-122000000D02*
X154500000Y-128250000D01*
X159500000Y-122000000D02*
X159500000Y-128250000D01*
X162000000Y-122000000D02*
X162000000Y-128250000D01*
X146750000Y-122000000D02*
X146750000Y-128000000D01*
X144250000Y-122000000D02*
X144250000Y-128250000D01*
X134250000Y-122000000D02*
X134250000Y-128250000D01*
X155629714Y-65349380D02*
X155629714Y-64349380D01*
X155391619Y-64349380D01*
X155248761Y-64397000D01*
X155153523Y-64492238D01*
X155105904Y-64587476D01*
X155058285Y-64777952D01*
X155058285Y-64920809D01*
X155105904Y-65111285D01*
X155153523Y-65206523D01*
X155248761Y-65301761D01*
X155391619Y-65349380D01*
X155629714Y-65349380D01*
X154058285Y-65254142D02*
X154105904Y-65301761D01*
X154248761Y-65349380D01*
X154344000Y-65349380D01*
X154486857Y-65301761D01*
X154582095Y-65206523D01*
X154629714Y-65111285D01*
X154677333Y-64920809D01*
X154677333Y-64777952D01*
X154629714Y-64587476D01*
X154582095Y-64492238D01*
X154486857Y-64397000D01*
X154344000Y-64349380D01*
X154248761Y-64349380D01*
X154105904Y-64397000D01*
X154058285Y-64444619D01*
X152867809Y-65349380D02*
X152867809Y-64349380D01*
X152391619Y-65349380D02*
X152391619Y-64349380D01*
X151820190Y-65349380D01*
X151820190Y-64349380D01*
X150677333Y-64349380D02*
X150058285Y-64349380D01*
X150391619Y-64730333D01*
X150248761Y-64730333D01*
X150153523Y-64777952D01*
X150105904Y-64825571D01*
X150058285Y-64920809D01*
X150058285Y-65158904D01*
X150105904Y-65254142D01*
X150153523Y-65301761D01*
X150248761Y-65349380D01*
X150534476Y-65349380D01*
X150629714Y-65301761D01*
X150677333Y-65254142D01*
X149629714Y-65254142D02*
X149582095Y-65301761D01*
X149629714Y-65349380D01*
X149677333Y-65301761D01*
X149629714Y-65254142D01*
X149629714Y-65349380D01*
X149248761Y-64349380D02*
X148582095Y-64349380D01*
X149010666Y-65349380D01*
X148344000Y-64349380D02*
X148010666Y-65349380D01*
X147677333Y-64349380D01*
X146724952Y-64968428D02*
X146677333Y-64920809D01*
X146582095Y-64873190D01*
X146391619Y-64968428D01*
X146296380Y-64920809D01*
X146248761Y-64873190D01*
X144582095Y-65349380D02*
X145153523Y-65349380D01*
X144867809Y-65349380D02*
X144867809Y-64349380D01*
X144963047Y-64492238D01*
X145058285Y-64587476D01*
X145153523Y-64635095D01*
X144201142Y-64444619D02*
X144153523Y-64397000D01*
X144058285Y-64349380D01*
X143820190Y-64349380D01*
X143724952Y-64397000D01*
X143677333Y-64444619D01*
X143629714Y-64539857D01*
X143629714Y-64635095D01*
X143677333Y-64777952D01*
X144248761Y-65349380D01*
X143629714Y-65349380D01*
X143344000Y-64349380D02*
X143010666Y-65349380D01*
X142677333Y-64349380D01*
X143190476Y-127202380D02*
X143761904Y-127202380D01*
X143476190Y-127202380D02*
X143476190Y-126202380D01*
X143571428Y-126345238D01*
X143666666Y-126440476D01*
X143761904Y-126488095D01*
X142285714Y-126202380D02*
X142761904Y-126202380D01*
X142809523Y-126678571D01*
X142761904Y-126630952D01*
X142666666Y-126583333D01*
X142428571Y-126583333D01*
X142333333Y-126630952D01*
X142285714Y-126678571D01*
X142238095Y-126773809D01*
X142238095Y-127011904D01*
X142285714Y-127107142D01*
X142333333Y-127154761D01*
X142428571Y-127202380D01*
X142666666Y-127202380D01*
X142761904Y-127154761D01*
X142809523Y-127107142D01*
X140690476Y-123952380D02*
X141261904Y-123952380D01*
X140976190Y-123952380D02*
X140976190Y-122952380D01*
X141071428Y-123095238D01*
X141166666Y-123190476D01*
X141261904Y-123238095D01*
X139833333Y-122952380D02*
X140023809Y-122952380D01*
X140119047Y-123000000D01*
X140166666Y-123047619D01*
X140261904Y-123190476D01*
X140309523Y-123380952D01*
X140309523Y-123761904D01*
X140261904Y-123857142D01*
X140214285Y-123904761D01*
X140119047Y-123952380D01*
X139928571Y-123952380D01*
X139833333Y-123904761D01*
X139785714Y-123857142D01*
X139738095Y-123761904D01*
X139738095Y-123523809D01*
X139785714Y-123428571D01*
X139833333Y-123380952D01*
X139928571Y-123333333D01*
X140119047Y-123333333D01*
X140214285Y-123380952D01*
X140261904Y-123428571D01*
X140309523Y-123523809D01*
X145690476Y-123952380D02*
X146261904Y-123952380D01*
X145976190Y-123952380D02*
X145976190Y-122952380D01*
X146071428Y-123095238D01*
X146166666Y-123190476D01*
X146261904Y-123238095D01*
X145309523Y-123047619D02*
X145261904Y-123000000D01*
X145166666Y-122952380D01*
X144928571Y-122952380D01*
X144833333Y-123000000D01*
X144785714Y-123047619D01*
X144738095Y-123142857D01*
X144738095Y-123238095D01*
X144785714Y-123380952D01*
X145357142Y-123952380D01*
X144738095Y-123952380D01*
X164109523Y-123100000D02*
X164185714Y-123061904D01*
X164300000Y-123061904D01*
X164414285Y-123100000D01*
X164490476Y-123176190D01*
X164528571Y-123252380D01*
X164566666Y-123404761D01*
X164566666Y-123519047D01*
X164528571Y-123671428D01*
X164490476Y-123747619D01*
X164414285Y-123823809D01*
X164300000Y-123861904D01*
X164223809Y-123861904D01*
X164109523Y-123823809D01*
X164071428Y-123785714D01*
X164071428Y-123519047D01*
X164223809Y-123519047D01*
X163728571Y-123861904D02*
X163728571Y-123061904D01*
X163271428Y-123861904D01*
X163271428Y-123061904D01*
X162890476Y-123861904D02*
X162890476Y-123061904D01*
X162700000Y-123061904D01*
X162585714Y-123100000D01*
X162509523Y-123176190D01*
X162471428Y-123252380D01*
X162433333Y-123404761D01*
X162433333Y-123519047D01*
X162471428Y-123671428D01*
X162509523Y-123747619D01*
X162585714Y-123823809D01*
X162700000Y-123861904D01*
X162890476Y-123861904D01*
X158011904Y-126202380D02*
X158488095Y-126202380D01*
X158535714Y-126678571D01*
X158488095Y-126630952D01*
X158392857Y-126583333D01*
X158154761Y-126583333D01*
X158059523Y-126630952D01*
X158011904Y-126678571D01*
X157964285Y-126773809D01*
X157964285Y-127011904D01*
X158011904Y-127107142D01*
X158059523Y-127154761D01*
X158154761Y-127202380D01*
X158392857Y-127202380D01*
X158488095Y-127154761D01*
X158535714Y-127107142D01*
X159914285Y-69552380D02*
X159914285Y-68552380D01*
X159533333Y-68552380D01*
X159438095Y-68600000D01*
X159390476Y-68647619D01*
X159342857Y-68742857D01*
X159342857Y-68885714D01*
X159390476Y-68980952D01*
X159438095Y-69028571D01*
X159533333Y-69076190D01*
X159914285Y-69076190D01*
X159009523Y-68552380D02*
X158771428Y-69552380D01*
X158580952Y-68838095D01*
X158390476Y-69552380D01*
X158152380Y-68552380D01*
X157771428Y-69552380D02*
X157771428Y-68552380D01*
X157438095Y-69266666D01*
X157104761Y-68552380D01*
X157104761Y-69552380D01*
X155676190Y-68552380D02*
X155485714Y-68552380D01*
X155390476Y-68600000D01*
X155295238Y-68695238D01*
X155247619Y-68885714D01*
X155247619Y-69219047D01*
X155295238Y-69409523D01*
X155390476Y-69504761D01*
X155485714Y-69552380D01*
X155676190Y-69552380D01*
X155771428Y-69504761D01*
X155866666Y-69409523D01*
X155914285Y-69219047D01*
X155914285Y-68885714D01*
X155866666Y-68695238D01*
X155771428Y-68600000D01*
X155676190Y-68552380D01*
X154819047Y-68552380D02*
X154819047Y-69361904D01*
X154771428Y-69457142D01*
X154723809Y-69504761D01*
X154628571Y-69552380D01*
X154438095Y-69552380D01*
X154342857Y-69504761D01*
X154295238Y-69457142D01*
X154247619Y-69361904D01*
X154247619Y-68552380D01*
X153914285Y-68552380D02*
X153342857Y-68552380D01*
X153628571Y-69552380D02*
X153628571Y-68552380D01*
X148190476Y-127202380D02*
X148761904Y-127202380D01*
X148476190Y-127202380D02*
X148476190Y-126202380D01*
X148571428Y-126345238D01*
X148666666Y-126440476D01*
X148761904Y-126488095D01*
X147238095Y-127202380D02*
X147809523Y-127202380D01*
X147523809Y-127202380D02*
X147523809Y-126202380D01*
X147619047Y-126345238D01*
X147714285Y-126440476D01*
X147809523Y-126488095D01*
X160845238Y-123380952D02*
X160940476Y-123333333D01*
X160988095Y-123285714D01*
X161035714Y-123190476D01*
X161035714Y-123142857D01*
X160988095Y-123047619D01*
X160940476Y-123000000D01*
X160845238Y-122952380D01*
X160654761Y-122952380D01*
X160559523Y-123000000D01*
X160511904Y-123047619D01*
X160464285Y-123142857D01*
X160464285Y-123190476D01*
X160511904Y-123285714D01*
X160559523Y-123333333D01*
X160654761Y-123380952D01*
X160845238Y-123380952D01*
X160940476Y-123428571D01*
X160988095Y-123476190D01*
X161035714Y-123571428D01*
X161035714Y-123761904D01*
X160988095Y-123857142D01*
X160940476Y-123904761D01*
X160845238Y-123952380D01*
X160654761Y-123952380D01*
X160559523Y-123904761D01*
X160511904Y-123857142D01*
X160464285Y-123761904D01*
X160464285Y-123571428D01*
X160511904Y-123476190D01*
X160559523Y-123428571D01*
X160654761Y-123380952D01*
X140690476Y-127202380D02*
X141261904Y-127202380D01*
X140976190Y-127202380D02*
X140976190Y-126202380D01*
X141071428Y-126345238D01*
X141166666Y-126440476D01*
X141261904Y-126488095D01*
X140357142Y-126202380D02*
X139690476Y-126202380D01*
X140119047Y-127202380D01*
X132940476Y-126202380D02*
X133416666Y-126202380D01*
X133464285Y-126678571D01*
X133416666Y-126630952D01*
X133321428Y-126583333D01*
X133083333Y-126583333D01*
X132988095Y-126630952D01*
X132940476Y-126678571D01*
X132892857Y-126773809D01*
X132892857Y-127011904D01*
X132940476Y-127107142D01*
X132988095Y-127154761D01*
X133083333Y-127202380D01*
X133321428Y-127202380D01*
X133416666Y-127154761D01*
X133464285Y-127107142D01*
X132607142Y-126202380D02*
X132273809Y-127202380D01*
X131940476Y-126202380D01*
X156933333Y-92052380D02*
X156600000Y-93052380D01*
X156266666Y-92052380D01*
X150940476Y-127202380D02*
X150750000Y-127202380D01*
X150654761Y-127154761D01*
X150607142Y-127107142D01*
X150511904Y-126964285D01*
X150464285Y-126773809D01*
X150464285Y-126392857D01*
X150511904Y-126297619D01*
X150559523Y-126250000D01*
X150654761Y-126202380D01*
X150845238Y-126202380D01*
X150940476Y-126250000D01*
X150988095Y-126297619D01*
X151035714Y-126392857D01*
X151035714Y-126630952D01*
X150988095Y-126726190D01*
X150940476Y-126773809D01*
X150845238Y-126821428D01*
X150654761Y-126821428D01*
X150559523Y-126773809D01*
X150511904Y-126726190D01*
X150464285Y-126630952D01*
X158059523Y-122952380D02*
X158250000Y-122952380D01*
X158345238Y-123000000D01*
X158392857Y-123047619D01*
X158488095Y-123190476D01*
X158535714Y-123380952D01*
X158535714Y-123761904D01*
X158488095Y-123857142D01*
X158440476Y-123904761D01*
X158345238Y-123952380D01*
X158154761Y-123952380D01*
X158059523Y-123904761D01*
X158011904Y-123857142D01*
X157964285Y-123761904D01*
X157964285Y-123523809D01*
X158011904Y-123428571D01*
X158059523Y-123380952D01*
X158154761Y-123333333D01*
X158345238Y-123333333D01*
X158440476Y-123380952D01*
X158488095Y-123428571D01*
X158535714Y-123523809D01*
X153838095Y-92100000D02*
X153933333Y-92052380D01*
X154076190Y-92052380D01*
X154219047Y-92100000D01*
X154314285Y-92195238D01*
X154361904Y-92290476D01*
X154409523Y-92480952D01*
X154409523Y-92623809D01*
X154361904Y-92814285D01*
X154314285Y-92909523D01*
X154219047Y-93004761D01*
X154076190Y-93052380D01*
X153980952Y-93052380D01*
X153838095Y-93004761D01*
X153790476Y-92957142D01*
X153790476Y-92623809D01*
X153980952Y-92623809D01*
X148190476Y-123952380D02*
X148761904Y-123952380D01*
X148476190Y-123952380D02*
X148476190Y-122952380D01*
X148571428Y-123095238D01*
X148666666Y-123190476D01*
X148761904Y-123238095D01*
X147571428Y-122952380D02*
X147476190Y-122952380D01*
X147380952Y-123000000D01*
X147333333Y-123047619D01*
X147285714Y-123142857D01*
X147238095Y-123333333D01*
X147238095Y-123571428D01*
X147285714Y-123761904D01*
X147333333Y-123857142D01*
X147380952Y-123904761D01*
X147476190Y-123952380D01*
X147571428Y-123952380D01*
X147666666Y-123904761D01*
X147714285Y-123857142D01*
X147761904Y-123761904D01*
X147809523Y-123571428D01*
X147809523Y-123333333D01*
X147761904Y-123142857D01*
X147714285Y-123047619D01*
X147666666Y-123000000D01*
X147571428Y-122952380D01*
X133511904Y-123047619D02*
X133464285Y-123000000D01*
X133369047Y-122952380D01*
X133130952Y-122952380D01*
X133035714Y-123000000D01*
X132988095Y-123047619D01*
X132940476Y-123142857D01*
X132940476Y-123238095D01*
X132988095Y-123380952D01*
X133559523Y-123952380D01*
X132940476Y-123952380D01*
X132559523Y-123047619D02*
X132511904Y-123000000D01*
X132416666Y-122952380D01*
X132178571Y-122952380D01*
X132083333Y-123000000D01*
X132035714Y-123047619D01*
X131988095Y-123142857D01*
X131988095Y-123238095D01*
X132035714Y-123380952D01*
X132607142Y-123952380D01*
X131988095Y-123952380D01*
X153535714Y-123047619D02*
X153488095Y-123000000D01*
X153392857Y-122952380D01*
X153154761Y-122952380D01*
X153059523Y-123000000D01*
X153011904Y-123047619D01*
X152964285Y-123142857D01*
X152964285Y-123238095D01*
X153011904Y-123380952D01*
X153583333Y-123952380D01*
X152964285Y-123952380D01*
X164240476Y-126311904D02*
X163745238Y-126311904D01*
X164011904Y-126616666D01*
X163897619Y-126616666D01*
X163821428Y-126654761D01*
X163783333Y-126692857D01*
X163745238Y-126769047D01*
X163745238Y-126959523D01*
X163783333Y-127035714D01*
X163821428Y-127073809D01*
X163897619Y-127111904D01*
X164126190Y-127111904D01*
X164202380Y-127073809D01*
X164240476Y-127035714D01*
X163516666Y-126311904D02*
X163250000Y-127111904D01*
X162983333Y-126311904D01*
X162792857Y-126311904D02*
X162297619Y-126311904D01*
X162564285Y-126616666D01*
X162450000Y-126616666D01*
X162373809Y-126654761D01*
X162335714Y-126692857D01*
X162297619Y-126769047D01*
X162297619Y-126959523D01*
X162335714Y-127035714D01*
X162373809Y-127073809D01*
X162450000Y-127111904D01*
X162678571Y-127111904D01*
X162754761Y-127073809D01*
X162792857Y-127035714D01*
X159485714Y-93004761D02*
X159342857Y-93052380D01*
X159104761Y-93052380D01*
X159009523Y-93004761D01*
X158961904Y-92957142D01*
X158914285Y-92861904D01*
X158914285Y-92766666D01*
X158961904Y-92671428D01*
X159009523Y-92623809D01*
X159104761Y-92576190D01*
X159295238Y-92528571D01*
X159390476Y-92480952D01*
X159438095Y-92433333D01*
X159485714Y-92338095D01*
X159485714Y-92242857D01*
X159438095Y-92147619D01*
X159390476Y-92100000D01*
X159295238Y-92052380D01*
X159057142Y-92052380D01*
X158914285Y-92100000D01*
X155559523Y-123285714D02*
X155559523Y-123952380D01*
X155797619Y-122904761D02*
X156035714Y-123619047D01*
X155416666Y-123619047D01*
X145690476Y-127202380D02*
X146261904Y-127202380D01*
X145976190Y-127202380D02*
X145976190Y-126202380D01*
X146071428Y-126345238D01*
X146166666Y-126440476D01*
X146261904Y-126488095D01*
X145357142Y-126202380D02*
X144738095Y-126202380D01*
X145071428Y-126583333D01*
X144928571Y-126583333D01*
X144833333Y-126630952D01*
X144785714Y-126678571D01*
X144738095Y-126773809D01*
X144738095Y-127011904D01*
X144785714Y-127107142D01*
X144833333Y-127154761D01*
X144928571Y-127202380D01*
X145214285Y-127202380D01*
X145309523Y-127154761D01*
X145357142Y-127107142D01*
X156126190Y-66109904D02*
X156126190Y-66300380D01*
X156316666Y-66224190D02*
X156126190Y-66300380D01*
X155935714Y-66224190D01*
X156240476Y-66452761D02*
X156126190Y-66300380D01*
X156011904Y-66452761D01*
X155402380Y-67214666D02*
X155440476Y-67176571D01*
X155516666Y-67062285D01*
X155554761Y-66986095D01*
X155592857Y-66871809D01*
X155630952Y-66681333D01*
X155630952Y-66528952D01*
X155592857Y-66338476D01*
X155554761Y-66224190D01*
X155516666Y-66148000D01*
X155440476Y-66033714D01*
X155402380Y-65995619D01*
X155097619Y-66909904D02*
X155097619Y-66109904D01*
X154907142Y-66109904D01*
X154792857Y-66148000D01*
X154716666Y-66224190D01*
X154678571Y-66300380D01*
X154640476Y-66452761D01*
X154640476Y-66567047D01*
X154678571Y-66719428D01*
X154716666Y-66795619D01*
X154792857Y-66871809D01*
X154907142Y-66909904D01*
X155097619Y-66909904D01*
X153840476Y-66833714D02*
X153878571Y-66871809D01*
X153992857Y-66909904D01*
X154069047Y-66909904D01*
X154183333Y-66871809D01*
X154259523Y-66795619D01*
X154297619Y-66719428D01*
X154335714Y-66567047D01*
X154335714Y-66452761D01*
X154297619Y-66300380D01*
X154259523Y-66224190D01*
X154183333Y-66148000D01*
X154069047Y-66109904D01*
X153992857Y-66109904D01*
X153878571Y-66148000D01*
X153840476Y-66186095D01*
X152888095Y-66909904D02*
X152888095Y-66376571D01*
X152888095Y-66109904D02*
X152926190Y-66148000D01*
X152888095Y-66186095D01*
X152850000Y-66148000D01*
X152888095Y-66109904D01*
X152888095Y-66186095D01*
X152507142Y-66376571D02*
X152507142Y-66909904D01*
X152507142Y-66452761D02*
X152469047Y-66414666D01*
X152392857Y-66376571D01*
X152278571Y-66376571D01*
X152202380Y-66414666D01*
X152164285Y-66490857D01*
X152164285Y-66909904D01*
X150792857Y-66109904D02*
X151173809Y-66109904D01*
X151211904Y-66490857D01*
X151173809Y-66452761D01*
X151097619Y-66414666D01*
X150907142Y-66414666D01*
X150830952Y-66452761D01*
X150792857Y-66490857D01*
X150754761Y-66567047D01*
X150754761Y-66757523D01*
X150792857Y-66833714D01*
X150830952Y-66871809D01*
X150907142Y-66909904D01*
X151097619Y-66909904D01*
X151173809Y-66871809D01*
X151211904Y-66833714D01*
X150526190Y-66109904D02*
X150259523Y-66909904D01*
X149992857Y-66109904D01*
X149192857Y-66376571D02*
X149040476Y-66909904D01*
X148888095Y-66528952D01*
X148735714Y-66909904D01*
X148583333Y-66376571D01*
X148278571Y-66909904D02*
X148278571Y-66109904D01*
X147935714Y-66909904D02*
X147935714Y-66490857D01*
X147973809Y-66414666D01*
X148050000Y-66376571D01*
X148164285Y-66376571D01*
X148240476Y-66414666D01*
X148278571Y-66452761D01*
X147250000Y-66871809D02*
X147326190Y-66909904D01*
X147478571Y-66909904D01*
X147554761Y-66871809D01*
X147592857Y-66795619D01*
X147592857Y-66490857D01*
X147554761Y-66414666D01*
X147478571Y-66376571D01*
X147326190Y-66376571D01*
X147250000Y-66414666D01*
X147211904Y-66490857D01*
X147211904Y-66567047D01*
X147592857Y-66643238D01*
X146869047Y-66376571D02*
X146869047Y-66909904D01*
X146869047Y-66452761D02*
X146830952Y-66414666D01*
X146754761Y-66376571D01*
X146640476Y-66376571D01*
X146564285Y-66414666D01*
X146526190Y-66490857D01*
X146526190Y-66909904D01*
X145192857Y-66376571D02*
X145192857Y-66909904D01*
X145535714Y-66376571D02*
X145535714Y-66795619D01*
X145497619Y-66871809D01*
X145421428Y-66909904D01*
X145307142Y-66909904D01*
X145230952Y-66871809D01*
X145192857Y-66833714D01*
X144850000Y-66871809D02*
X144773809Y-66909904D01*
X144621428Y-66909904D01*
X144545238Y-66871809D01*
X144507142Y-66795619D01*
X144507142Y-66757523D01*
X144545238Y-66681333D01*
X144621428Y-66643238D01*
X144735714Y-66643238D01*
X144811904Y-66605142D01*
X144850000Y-66528952D01*
X144850000Y-66490857D01*
X144811904Y-66414666D01*
X144735714Y-66376571D01*
X144621428Y-66376571D01*
X144545238Y-66414666D01*
X143859523Y-66871809D02*
X143935714Y-66909904D01*
X144088095Y-66909904D01*
X144164285Y-66871809D01*
X144202380Y-66795619D01*
X144202380Y-66490857D01*
X144164285Y-66414666D01*
X144088095Y-66376571D01*
X143935714Y-66376571D01*
X143859523Y-66414666D01*
X143821428Y-66490857D01*
X143821428Y-66567047D01*
X144202380Y-66643238D01*
X142907142Y-66871809D02*
X142792857Y-66909904D01*
X142602380Y-66909904D01*
X142526190Y-66871809D01*
X142488095Y-66833714D01*
X142450000Y-66757523D01*
X142450000Y-66681333D01*
X142488095Y-66605142D01*
X142526190Y-66567047D01*
X142602380Y-66528952D01*
X142754761Y-66490857D01*
X142830952Y-66452761D01*
X142869047Y-66414666D01*
X142907142Y-66338476D01*
X142907142Y-66262285D01*
X142869047Y-66186095D01*
X142830952Y-66148000D01*
X142754761Y-66109904D01*
X142564285Y-66109904D01*
X142450000Y-66148000D01*
X141802380Y-66871809D02*
X141878571Y-66909904D01*
X142030952Y-66909904D01*
X142107142Y-66871809D01*
X142145238Y-66795619D01*
X142145238Y-66490857D01*
X142107142Y-66414666D01*
X142030952Y-66376571D01*
X141878571Y-66376571D01*
X141802380Y-66414666D01*
X141764285Y-66490857D01*
X141764285Y-66567047D01*
X142145238Y-66643238D01*
X141421428Y-66909904D02*
X141421428Y-66376571D01*
X141421428Y-66528952D02*
X141383333Y-66452761D01*
X141345238Y-66414666D01*
X141269047Y-66376571D01*
X141192857Y-66376571D01*
X141002380Y-66376571D02*
X140811904Y-66909904D01*
X140621428Y-66376571D01*
X140202380Y-66909904D02*
X140278571Y-66871809D01*
X140316666Y-66833714D01*
X140354761Y-66757523D01*
X140354761Y-66528952D01*
X140316666Y-66452761D01*
X140278571Y-66414666D01*
X140202380Y-66376571D01*
X140088095Y-66376571D01*
X140011904Y-66414666D01*
X139973809Y-66452761D01*
X139935714Y-66528952D01*
X139935714Y-66757523D01*
X139973809Y-66833714D01*
X140011904Y-66871809D01*
X140088095Y-66909904D01*
X140202380Y-66909904D01*
X138983333Y-66909904D02*
X138983333Y-66376571D01*
X138983333Y-66452761D02*
X138945238Y-66414666D01*
X138869047Y-66376571D01*
X138754761Y-66376571D01*
X138678571Y-66414666D01*
X138640476Y-66490857D01*
X138640476Y-66909904D01*
X138640476Y-66490857D02*
X138602380Y-66414666D01*
X138526190Y-66376571D01*
X138411904Y-66376571D01*
X138335714Y-66414666D01*
X138297619Y-66490857D01*
X138297619Y-66909904D01*
X137802380Y-66909904D02*
X137878571Y-66871809D01*
X137916666Y-66833714D01*
X137954761Y-66757523D01*
X137954761Y-66528952D01*
X137916666Y-66452761D01*
X137878571Y-66414666D01*
X137802380Y-66376571D01*
X137688095Y-66376571D01*
X137611904Y-66414666D01*
X137573809Y-66452761D01*
X137535714Y-66528952D01*
X137535714Y-66757523D01*
X137573809Y-66833714D01*
X137611904Y-66871809D01*
X137688095Y-66909904D01*
X137802380Y-66909904D01*
X137307142Y-66376571D02*
X137002380Y-66376571D01*
X137192857Y-66109904D02*
X137192857Y-66795619D01*
X137154761Y-66871809D01*
X137078571Y-66909904D01*
X137002380Y-66909904D01*
X136621428Y-66909904D02*
X136697619Y-66871809D01*
X136735714Y-66833714D01*
X136773809Y-66757523D01*
X136773809Y-66528952D01*
X136735714Y-66452761D01*
X136697619Y-66414666D01*
X136621428Y-66376571D01*
X136507142Y-66376571D01*
X136430952Y-66414666D01*
X136392857Y-66452761D01*
X136354761Y-66528952D01*
X136354761Y-66757523D01*
X136392857Y-66833714D01*
X136430952Y-66871809D01*
X136507142Y-66909904D01*
X136621428Y-66909904D01*
X136088095Y-67214666D02*
X136050000Y-67176571D01*
X135973809Y-67062285D01*
X135935714Y-66986095D01*
X135897619Y-66871809D01*
X135859523Y-66681333D01*
X135859523Y-66528952D01*
X135897619Y-66338476D01*
X135935714Y-66224190D01*
X135973809Y-66148000D01*
X136050000Y-66033714D01*
X136088095Y-65995619D01*
X153566666Y-118266666D02*
X153090476Y-118266666D01*
X153661904Y-118552380D02*
X153328571Y-117552380D01*
X152995238Y-118552380D01*
X152471428Y-117552380D02*
X152280952Y-117552380D01*
X152185714Y-117600000D01*
X152090476Y-117695238D01*
X152042857Y-117885714D01*
X152042857Y-118219047D01*
X152090476Y-118409523D01*
X152185714Y-118504761D01*
X152280952Y-118552380D01*
X152471428Y-118552380D01*
X152566666Y-118504761D01*
X152661904Y-118409523D01*
X152709523Y-118219047D01*
X152709523Y-117885714D01*
X152661904Y-117695238D01*
X152566666Y-117600000D01*
X152471428Y-117552380D01*
X151614285Y-117552380D02*
X151614285Y-118361904D01*
X151566666Y-118457142D01*
X151519047Y-118504761D01*
X151423809Y-118552380D01*
X151233333Y-118552380D01*
X151138095Y-118504761D01*
X151090476Y-118457142D01*
X151042857Y-118361904D01*
X151042857Y-117552380D01*
X150709523Y-117552380D02*
X150138095Y-117552380D01*
X150423809Y-118552380D02*
X150423809Y-117552380D01*
X156083333Y-126202380D02*
X155464285Y-126202380D01*
X155797619Y-126583333D01*
X155654761Y-126583333D01*
X155559523Y-126630952D01*
X155511904Y-126678571D01*
X155464285Y-126773809D01*
X155464285Y-127011904D01*
X155511904Y-127107142D01*
X155559523Y-127154761D01*
X155654761Y-127202380D01*
X155940476Y-127202380D01*
X156035714Y-127154761D01*
X156083333Y-127107142D01*
X152661904Y-112800000D02*
X152757142Y-112752380D01*
X152900000Y-112752380D01*
X153042857Y-112800000D01*
X153138095Y-112895238D01*
X153185714Y-112990476D01*
X153233333Y-113180952D01*
X153233333Y-113323809D01*
X153185714Y-113514285D01*
X153138095Y-113609523D01*
X153042857Y-113704761D01*
X152900000Y-113752380D01*
X152804761Y-113752380D01*
X152661904Y-113704761D01*
X152614285Y-113657142D01*
X152614285Y-113323809D01*
X152804761Y-113323809D01*
X152185714Y-113752380D02*
X152185714Y-112752380D01*
X151614285Y-113752380D01*
X151614285Y-112752380D01*
X151138095Y-113752380D02*
X151138095Y-112752380D01*
X150900000Y-112752380D01*
X150757142Y-112800000D01*
X150661904Y-112895238D01*
X150614285Y-112990476D01*
X150566666Y-113180952D01*
X150566666Y-113323809D01*
X150614285Y-113514285D01*
X150661904Y-113609523D01*
X150757142Y-113704761D01*
X150900000Y-113752380D01*
X151138095Y-113752380D01*
X136261904Y-126297619D02*
X136214285Y-126250000D01*
X136119047Y-126202380D01*
X135880952Y-126202380D01*
X135785714Y-126250000D01*
X135738095Y-126297619D01*
X135690476Y-126392857D01*
X135690476Y-126488095D01*
X135738095Y-126630952D01*
X136309523Y-127202380D01*
X135690476Y-127202380D01*
X134738095Y-127202380D02*
X135309523Y-127202380D01*
X135023809Y-127202380D02*
X135023809Y-126202380D01*
X135119047Y-126345238D01*
X135214285Y-126440476D01*
X135309523Y-126488095D01*
X144919047Y-88352380D02*
X144919047Y-89066666D01*
X144966666Y-89209523D01*
X145061904Y-89304761D01*
X145204761Y-89352380D01*
X145300000Y-89352380D01*
X143966666Y-89352380D02*
X144442857Y-89352380D01*
X144442857Y-88352380D01*
X143061904Y-89257142D02*
X143109523Y-89304761D01*
X143252380Y-89352380D01*
X143347619Y-89352380D01*
X143490476Y-89304761D01*
X143585714Y-89209523D01*
X143633333Y-89114285D01*
X143680952Y-88923809D01*
X143680952Y-88780952D01*
X143633333Y-88590476D01*
X143585714Y-88495238D01*
X143490476Y-88400000D01*
X143347619Y-88352380D01*
X143252380Y-88352380D01*
X143109523Y-88400000D01*
X143061904Y-88447619D01*
X142347619Y-88352380D02*
X142347619Y-89066666D01*
X142395238Y-89209523D01*
X142490476Y-89304761D01*
X142633333Y-89352380D01*
X142728571Y-89352380D01*
X141395238Y-89352380D02*
X141871428Y-89352380D01*
X141871428Y-88352380D01*
X140490476Y-89257142D02*
X140538095Y-89304761D01*
X140680952Y-89352380D01*
X140776190Y-89352380D01*
X140919047Y-89304761D01*
X141014285Y-89209523D01*
X141061904Y-89114285D01*
X141109523Y-88923809D01*
X141109523Y-88780952D01*
X141061904Y-88590476D01*
X141014285Y-88495238D01*
X140919047Y-88400000D01*
X140776190Y-88352380D01*
X140680952Y-88352380D01*
X140538095Y-88400000D01*
X140490476Y-88447619D01*
X139776190Y-88352380D02*
X139776190Y-89066666D01*
X139823809Y-89209523D01*
X139919047Y-89304761D01*
X140061904Y-89352380D01*
X140157142Y-89352380D01*
X138823809Y-89352380D02*
X139300000Y-89352380D01*
X139300000Y-88352380D01*
X137919047Y-89257142D02*
X137966666Y-89304761D01*
X138109523Y-89352380D01*
X138204761Y-89352380D01*
X138347619Y-89304761D01*
X138442857Y-89209523D01*
X138490476Y-89114285D01*
X138538095Y-88923809D01*
X138538095Y-88780952D01*
X138490476Y-88590476D01*
X138442857Y-88495238D01*
X138347619Y-88400000D01*
X138204761Y-88352380D01*
X138109523Y-88352380D01*
X137966666Y-88400000D01*
X137919047Y-88447619D01*
X137204761Y-88352380D02*
X137204761Y-89066666D01*
X137252380Y-89209523D01*
X137347619Y-89304761D01*
X137490476Y-89352380D01*
X137585714Y-89352380D01*
X136252380Y-89352380D02*
X136728571Y-89352380D01*
X136728571Y-88352380D01*
X135347619Y-89257142D02*
X135395238Y-89304761D01*
X135538095Y-89352380D01*
X135633333Y-89352380D01*
X135776190Y-89304761D01*
X135871428Y-89209523D01*
X135919047Y-89114285D01*
X135966666Y-88923809D01*
X135966666Y-88780952D01*
X135919047Y-88590476D01*
X135871428Y-88495238D01*
X135776190Y-88400000D01*
X135633333Y-88352380D01*
X135538095Y-88352380D01*
X135395238Y-88400000D01*
X135347619Y-88447619D01*
X144976190Y-92452380D02*
X144642857Y-93452380D01*
X144309523Y-92452380D01*
X143785714Y-92452380D02*
X143595238Y-92452380D01*
X143500000Y-92500000D01*
X143404761Y-92595238D01*
X143357142Y-92785714D01*
X143357142Y-93119047D01*
X143404761Y-93309523D01*
X143500000Y-93404761D01*
X143595238Y-93452380D01*
X143785714Y-93452380D01*
X143880952Y-93404761D01*
X143976190Y-93309523D01*
X144023809Y-93119047D01*
X144023809Y-92785714D01*
X143976190Y-92595238D01*
X143880952Y-92500000D01*
X143785714Y-92452380D01*
X142928571Y-93071428D02*
X142166666Y-93071428D01*
X142547619Y-93452380D02*
X142547619Y-92690476D01*
X138190476Y-127202380D02*
X138761904Y-127202380D01*
X138476190Y-127202380D02*
X138476190Y-126202380D01*
X138571428Y-126345238D01*
X138666666Y-126440476D01*
X138761904Y-126488095D01*
X137714285Y-127202380D02*
X137523809Y-127202380D01*
X137428571Y-127154761D01*
X137380952Y-127107142D01*
X137285714Y-126964285D01*
X137238095Y-126773809D01*
X137238095Y-126392857D01*
X137285714Y-126297619D01*
X137333333Y-126250000D01*
X137428571Y-126202380D01*
X137619047Y-126202380D01*
X137714285Y-126250000D01*
X137761904Y-126297619D01*
X137809523Y-126392857D01*
X137809523Y-126630952D01*
X137761904Y-126726190D01*
X137714285Y-126773809D01*
X137619047Y-126821428D01*
X137428571Y-126821428D01*
X137333333Y-126773809D01*
X137285714Y-126726190D01*
X137238095Y-126630952D01*
X138190476Y-123952380D02*
X138761904Y-123952380D01*
X138476190Y-123952380D02*
X138476190Y-122952380D01*
X138571428Y-123095238D01*
X138666666Y-123190476D01*
X138761904Y-123238095D01*
X137619047Y-123380952D02*
X137714285Y-123333333D01*
X137761904Y-123285714D01*
X137809523Y-123190476D01*
X137809523Y-123142857D01*
X137761904Y-123047619D01*
X137714285Y-123000000D01*
X137619047Y-122952380D01*
X137428571Y-122952380D01*
X137333333Y-123000000D01*
X137285714Y-123047619D01*
X137238095Y-123142857D01*
X137238095Y-123190476D01*
X137285714Y-123285714D01*
X137333333Y-123333333D01*
X137428571Y-123380952D01*
X137619047Y-123380952D01*
X137714285Y-123428571D01*
X137761904Y-123476190D01*
X137809523Y-123571428D01*
X137809523Y-123761904D01*
X137761904Y-123857142D01*
X137714285Y-123904761D01*
X137619047Y-123952380D01*
X137428571Y-123952380D01*
X137333333Y-123904761D01*
X137285714Y-123857142D01*
X137238095Y-123761904D01*
X137238095Y-123571428D01*
X137285714Y-123476190D01*
X137333333Y-123428571D01*
X137428571Y-123380952D01*
X150797619Y-122952380D02*
X150702380Y-122952380D01*
X150607142Y-123000000D01*
X150559523Y-123047619D01*
X150511904Y-123142857D01*
X150464285Y-123333333D01*
X150464285Y-123571428D01*
X150511904Y-123761904D01*
X150559523Y-123857142D01*
X150607142Y-123904761D01*
X150702380Y-123952380D01*
X150797619Y-123952380D01*
X150892857Y-123904761D01*
X150940476Y-123857142D01*
X150988095Y-123761904D01*
X151035714Y-123571428D01*
X151035714Y-123333333D01*
X150988095Y-123142857D01*
X150940476Y-123047619D01*
X150892857Y-123000000D01*
X150797619Y-122952380D01*
X143190476Y-123952380D02*
X143761904Y-123952380D01*
X143476190Y-123952380D02*
X143476190Y-122952380D01*
X143571428Y-123095238D01*
X143666666Y-123190476D01*
X143761904Y-123238095D01*
X142333333Y-123285714D02*
X142333333Y-123952380D01*
X142571428Y-122904761D02*
X142809523Y-123619047D01*
X142190476Y-123619047D01*
X161083333Y-126202380D02*
X160416666Y-126202380D01*
X160845238Y-127202380D01*
X152964285Y-127202380D02*
X153535714Y-127202380D01*
X153250000Y-127202380D02*
X153250000Y-126202380D01*
X153345238Y-126345238D01*
X153440476Y-126440476D01*
X153535714Y-126488095D01*
X144790476Y-84052380D02*
X144457142Y-85052380D01*
X144123809Y-84052380D01*
X143790476Y-85052380D02*
X143790476Y-84052380D01*
X143314285Y-84671428D02*
X142552380Y-84671428D01*
X142933333Y-85052380D02*
X142933333Y-84290476D01*
X136261904Y-123047619D02*
X136214285Y-123000000D01*
X136119047Y-122952380D01*
X135880952Y-122952380D01*
X135785714Y-123000000D01*
X135738095Y-123047619D01*
X135690476Y-123142857D01*
X135690476Y-123238095D01*
X135738095Y-123380952D01*
X136309523Y-123952380D01*
X135690476Y-123952380D01*
X135071428Y-122952380D02*
X134976190Y-122952380D01*
X134880952Y-123000000D01*
X134833333Y-123047619D01*
X134785714Y-123142857D01*
X134738095Y-123333333D01*
X134738095Y-123571428D01*
X134785714Y-123761904D01*
X134833333Y-123857142D01*
X134880952Y-123904761D01*
X134976190Y-123952380D01*
X135071428Y-123952380D01*
X135166666Y-123904761D01*
X135214285Y-123857142D01*
X135261904Y-123761904D01*
X135309523Y-123571428D01*
X135309523Y-123333333D01*
X135261904Y-123142857D01*
X135214285Y-123047619D01*
X135166666Y-123000000D01*
X135071428Y-122952380D01*
D11*
X157677500Y-102154724D02*
X157677500Y-101645276D01*
X158722500Y-102154724D02*
X158722500Y-101645276D01*
X142200000Y-97400000D02*
X137700000Y-97400000D01*
X133200000Y-88900000D02*
X133200000Y-97400000D01*
X145200000Y-80400000D02*
X146200000Y-80400000D01*
X146200000Y-88900000D02*
X146200000Y-80400000D01*
X133200000Y-88900000D02*
X133200000Y-80400000D01*
X133200000Y-97400000D02*
X134700000Y-97400000D01*
X146200000Y-97400000D02*
X145200000Y-97400000D01*
X142200000Y-80400000D02*
X137700000Y-80400000D01*
X146200000Y-88900000D02*
X146200000Y-97400000D01*
X133200000Y-80400000D02*
X134700000Y-80400000D01*
X155330000Y-70670000D02*
X154000000Y-70670000D01*
X155330000Y-72000000D02*
X155330000Y-70670000D01*
X152670000Y-73270000D02*
X152670000Y-91110000D01*
X155330000Y-91110000D02*
X152670000Y-91110000D01*
X155330000Y-73270000D02*
X152670000Y-73270000D01*
X155330000Y-73270000D02*
X155330000Y-91110000D01*
X155350000Y-104750000D02*
X155350000Y-106750000D01*
X158150000Y-104750000D02*
X155350000Y-104750000D01*
X158150000Y-106750000D02*
X158150000Y-104750000D01*
X155350000Y-106750000D02*
X158150000Y-106750000D01*
X155200000Y-100340000D02*
X154550000Y-100340000D01*
X155200000Y-103460000D02*
X154550000Y-103460000D01*
X155200000Y-103460000D02*
X155850000Y-103460000D01*
X155200000Y-100340000D02*
X156875000Y-100340000D01*
X147254724Y-72522500D02*
X146745276Y-72522500D01*
X147254724Y-71477500D02*
X146745276Y-71477500D01*
X149875000Y-136330000D02*
X149875000Y-138990000D01*
X160925000Y-135932929D02*
X160925000Y-136330000D01*
X165175000Y-136330000D02*
X165175000Y-138990000D01*
X151525000Y-135932929D02*
X151525000Y-136330000D01*
X160035000Y-136330000D02*
X160035000Y-138990000D01*
X163465000Y-138990000D02*
X163465000Y-144990000D01*
X141365000Y-135932929D02*
X141365000Y-136330000D01*
X156605000Y-135932929D02*
X156605000Y-136330000D01*
X133745000Y-133460000D02*
X133745000Y-133847071D01*
X140605000Y-138990000D02*
X140605000Y-144990000D01*
X136285000Y-135932929D02*
X136285000Y-136330000D01*
X150765000Y-144990000D02*
X151525000Y-144990000D01*
X153305000Y-138990000D02*
X153305000Y-144990000D01*
X135525000Y-138990000D02*
X135525000Y-144990000D01*
X132985000Y-138990000D02*
X132985000Y-144990000D01*
X138825000Y-135932929D02*
X138825000Y-136330000D01*
X133745000Y-144990000D02*
X133745000Y-138990000D01*
X153305000Y-135932929D02*
X153305000Y-136330000D01*
X145685000Y-144990000D02*
X146445000Y-144990000D01*
X133365000Y-131080000D02*
X132095000Y-131080000D01*
X160925000Y-144990000D02*
X161685000Y-144990000D01*
X155845000Y-133392929D02*
X155845000Y-133847071D01*
X158385000Y-138990000D02*
X158385000Y-144990000D01*
X137175000Y-136330000D02*
X137175000Y-138990000D01*
X140605000Y-135932929D02*
X140605000Y-136330000D01*
X147335000Y-136330000D02*
X147335000Y-138990000D01*
X153305000Y-144990000D02*
X154065000Y-144990000D01*
X132095000Y-131080000D02*
X132095000Y-132350000D01*
X156605000Y-133392929D02*
X156605000Y-133847071D01*
X143905000Y-144990000D02*
X143905000Y-138990000D01*
X158385000Y-144990000D02*
X159145000Y-144990000D01*
X132985000Y-135932929D02*
X132985000Y-136330000D01*
X164225000Y-133392929D02*
X164225000Y-133847071D01*
X148225000Y-133392929D02*
X148225000Y-133847071D01*
X138825000Y-133392929D02*
X138825000Y-133847071D01*
X146445000Y-144990000D02*
X146445000Y-138990000D01*
X161685000Y-135932929D02*
X161685000Y-136330000D01*
X138065000Y-138990000D02*
X138065000Y-144990000D01*
X143145000Y-138990000D02*
X143145000Y-144990000D01*
X132035000Y-136330000D02*
X165175000Y-136330000D01*
X133165000Y-138990000D02*
X133165000Y-144990000D01*
X132985000Y-144990000D02*
X133745000Y-144990000D01*
X140605000Y-144990000D02*
X141365000Y-144990000D01*
X138065000Y-133392929D02*
X138065000Y-133847071D01*
X159145000Y-144990000D02*
X159145000Y-138990000D01*
X152415000Y-136330000D02*
X152415000Y-138990000D01*
X134635000Y-136330000D02*
X134635000Y-138990000D01*
X145685000Y-133392929D02*
X145685000Y-133847071D01*
X145685000Y-138990000D02*
X145685000Y-144990000D01*
X163465000Y-133392929D02*
X163465000Y-133847071D01*
X135525000Y-135932929D02*
X135525000Y-136330000D01*
X143145000Y-133392929D02*
X143145000Y-133847071D01*
X133045000Y-138990000D02*
X133045000Y-144990000D01*
X141365000Y-133392929D02*
X141365000Y-133847071D01*
X143905000Y-133392929D02*
X143905000Y-133847071D01*
X143145000Y-144990000D02*
X143905000Y-144990000D01*
X136285000Y-144990000D02*
X136285000Y-138990000D01*
X150765000Y-135932929D02*
X150765000Y-136330000D01*
X135525000Y-133392929D02*
X135525000Y-133847071D01*
X133525000Y-138990000D02*
X133525000Y-144990000D01*
X156605000Y-144990000D02*
X156605000Y-138990000D01*
X161685000Y-133392929D02*
X161685000Y-133847071D01*
X159145000Y-133392929D02*
X159145000Y-133847071D01*
X143145000Y-135932929D02*
X143145000Y-136330000D01*
X148985000Y-135932929D02*
X148985000Y-136330000D01*
X163465000Y-135932929D02*
X163465000Y-136330000D01*
X157495000Y-136330000D02*
X157495000Y-138990000D01*
X154955000Y-136330000D02*
X154955000Y-138990000D01*
X158385000Y-133392929D02*
X158385000Y-133847071D01*
X138065000Y-135932929D02*
X138065000Y-136330000D01*
X146445000Y-135932929D02*
X146445000Y-136330000D01*
X135525000Y-144990000D02*
X136285000Y-144990000D01*
X151525000Y-144990000D02*
X151525000Y-138990000D01*
X155845000Y-144990000D02*
X156605000Y-144990000D01*
X143905000Y-135932929D02*
X143905000Y-136330000D01*
X138065000Y-144990000D02*
X138825000Y-144990000D01*
X145685000Y-135932929D02*
X145685000Y-136330000D01*
X132035000Y-138990000D02*
X132035000Y-136330000D01*
X138825000Y-144990000D02*
X138825000Y-138990000D01*
X159145000Y-135932929D02*
X159145000Y-136330000D01*
X139715000Y-136330000D02*
X139715000Y-138990000D01*
X155845000Y-138990000D02*
X155845000Y-144990000D01*
X165175000Y-138990000D02*
X132035000Y-138990000D01*
X162575000Y-136330000D02*
X162575000Y-138990000D01*
X132985000Y-133460000D02*
X132985000Y-133847071D01*
X144795000Y-136330000D02*
X144795000Y-138990000D01*
X150765000Y-138990000D02*
X150765000Y-144990000D01*
X142255000Y-136330000D02*
X142255000Y-138990000D01*
X133285000Y-138990000D02*
X133285000Y-144990000D01*
X164225000Y-135932929D02*
X164225000Y-136330000D01*
X140605000Y-133392929D02*
X140605000Y-133847071D01*
X150765000Y-133392929D02*
X150765000Y-133847071D01*
X164225000Y-144990000D02*
X164225000Y-138990000D01*
X141365000Y-144990000D02*
X141365000Y-138990000D01*
X154065000Y-135932929D02*
X154065000Y-136330000D01*
X148225000Y-138990000D02*
X148225000Y-144990000D01*
X133745000Y-135932929D02*
X133745000Y-136330000D01*
X154065000Y-133392929D02*
X154065000Y-133847071D01*
X158385000Y-135932929D02*
X158385000Y-136330000D01*
X160925000Y-133392929D02*
X160925000Y-133847071D01*
X151525000Y-133392929D02*
X151525000Y-133847071D01*
X153305000Y-133392929D02*
X153305000Y-133847071D01*
X160925000Y-138990000D02*
X160925000Y-144990000D01*
X161685000Y-144990000D02*
X161685000Y-138990000D01*
X133405000Y-138990000D02*
X133405000Y-144990000D01*
X146445000Y-133392929D02*
X146445000Y-133847071D01*
X148225000Y-144990000D02*
X148985000Y-144990000D01*
X148985000Y-144990000D02*
X148985000Y-138990000D01*
X133645000Y-138990000D02*
X133645000Y-144990000D01*
X148225000Y-135932929D02*
X148225000Y-136330000D01*
X163465000Y-144990000D02*
X164225000Y-144990000D01*
X155845000Y-135932929D02*
X155845000Y-136330000D01*
X136285000Y-133392929D02*
X136285000Y-133847071D01*
X148985000Y-133392929D02*
X148985000Y-133847071D01*
X154065000Y-144990000D02*
X154065000Y-138990000D01*
X161654000Y-116612000D02*
X161547000Y-116719000D01*
X156500000Y-120560000D02*
X156500000Y-110440000D01*
X161388000Y-116346000D02*
X161281000Y-116453000D01*
X164060000Y-110440000D02*
X154940000Y-110440000D01*
X161654000Y-111612000D02*
X161274000Y-111992000D01*
X154700000Y-120800000D02*
X154700000Y-120400000D01*
X158453000Y-119282000D02*
X158346000Y-119388000D01*
X155340000Y-120800000D02*
X154700000Y-120800000D01*
X159008000Y-114258000D02*
X158612000Y-114653000D01*
X158726000Y-114007000D02*
X158346000Y-114387000D01*
X164060000Y-120560000D02*
X164060000Y-110440000D01*
X164060000Y-120560000D02*
X154940000Y-120560000D01*
X161388000Y-111346000D02*
X160992000Y-111741000D01*
X158719000Y-119548000D02*
X158612000Y-119654000D01*
X155400000Y-120560000D02*
X155400000Y-110440000D01*
X154940000Y-120560000D02*
X154940000Y-110440000D01*
X162180000Y-118000000D02*
G75*
G03*
X162180000Y-118000000I-2180000J0D01*
G01*
X162180000Y-113000000D02*
G75*
G03*
X162180000Y-113000000I-2180000J0D01*
G01*
X143785000Y-69300000D02*
X135615000Y-69300000D01*
X143785000Y-70150000D02*
X143785000Y-69300000D01*
X143785000Y-73670000D02*
X143785000Y-74520000D01*
X135615000Y-69300000D02*
X135615000Y-70150000D01*
X143785000Y-74520000D02*
X141460000Y-74520000D01*
X135615000Y-74520000D02*
X137940000Y-74520000D01*
X135615000Y-73670000D02*
X135615000Y-74520000D01*
X141460000Y-74520000D02*
X141460000Y-76910000D01*
X157870000Y-73270000D02*
X155210000Y-73270000D01*
X157870000Y-73270000D02*
X157870000Y-91110000D01*
X157870000Y-70670000D02*
X156540000Y-70670000D01*
X157870000Y-72000000D02*
X157870000Y-70670000D01*
X155210000Y-73270000D02*
X155210000Y-91110000D01*
X157870000Y-91110000D02*
X155210000Y-91110000D01*
X154945276Y-99422500D02*
X155454724Y-99422500D01*
X154945276Y-98377500D02*
X155454724Y-98377500D01*
X160410000Y-70670000D02*
X159080000Y-70670000D01*
X160410000Y-73270000D02*
X160410000Y-91110000D01*
X157750000Y-73270000D02*
X157750000Y-91110000D01*
X160410000Y-91110000D02*
X157750000Y-91110000D01*
X160410000Y-73270000D02*
X157750000Y-73270000D01*
X160410000Y-72000000D02*
X160410000Y-70670000D01*
X146745276Y-76722500D02*
X147254724Y-76722500D01*
X146745276Y-75677500D02*
X147254724Y-75677500D01*
X155367224Y-96377500D02*
X154857776Y-96377500D01*
X155367224Y-97422500D02*
X154857776Y-97422500D01*
X147254724Y-74522500D02*
X146745276Y-74522500D01*
X147254724Y-73477500D02*
X146745276Y-73477500D01*
%LPC*%
D12*
X127000000Y-70305000D03*
D13*
X127000000Y-72845000D03*
X127000000Y-75385000D03*
X127000000Y-77925000D03*
X127000000Y-80465000D03*
X127000000Y-83005000D03*
X127000000Y-85545000D03*
X127000000Y-88085000D03*
X127000000Y-90625000D03*
X127000000Y-93165000D03*
X127000000Y-95705000D03*
X127000000Y-98245000D03*
X127000000Y-100785000D03*
X127000000Y-103325000D03*
X127000000Y-105865000D03*
D14*
X170180000Y-137160000D03*
D15*
X165953000Y-70305000D03*
D16*
X165953000Y-72845000D03*
X165953000Y-75385000D03*
X165953000Y-77925000D03*
X165953000Y-80465000D03*
X165953000Y-83005000D03*
X165953000Y-85545000D03*
X165953000Y-88085000D03*
X165953000Y-90625000D03*
X165953000Y-93165000D03*
X165953000Y-95705000D03*
X165953000Y-98245000D03*
X165953000Y-100785000D03*
X165953000Y-103325000D03*
X165953000Y-105865000D03*
X130745000Y-70305000D03*
X130745000Y-72845000D03*
X130745000Y-75385000D03*
X130745000Y-77925000D03*
X130745000Y-80465000D03*
X130745000Y-83005000D03*
X130745000Y-85545000D03*
X130745000Y-88085000D03*
X130745000Y-90625000D03*
X130745000Y-93165000D03*
X130745000Y-95705000D03*
X130745000Y-98245000D03*
X130745000Y-100785000D03*
X130745000Y-103325000D03*
X130745000Y-105865000D03*
D14*
X127000000Y-137160000D03*
X127000000Y-60960000D03*
X161000000Y-61000000D03*
D12*
X170180000Y-70305000D03*
D13*
X170180000Y-72845000D03*
X170180000Y-75385000D03*
X170180000Y-77925000D03*
X170180000Y-80465000D03*
X170180000Y-83005000D03*
X170180000Y-85545000D03*
X170180000Y-88085000D03*
X170180000Y-90625000D03*
X170180000Y-93165000D03*
X170180000Y-95705000D03*
X170180000Y-98245000D03*
X170180000Y-100785000D03*
X170180000Y-103325000D03*
X170180000Y-105865000D03*
D17*
X146100000Y-61200000D03*
D12*
X170180000Y-112000000D03*
D13*
X170180000Y-114540000D03*
X170180000Y-117080000D03*
X170180000Y-119620000D03*
D14*
X170180000Y-60960000D03*
D12*
X127000000Y-112000000D03*
D13*
X127000000Y-114540000D03*
X127000000Y-117080000D03*
X127000000Y-119620000D03*
D17*
X151180000Y-61200000D03*
D18*
X158200000Y-102812500D03*
X158200000Y-100987500D03*
D19*
X143720000Y-81400000D03*
X136100000Y-81400000D03*
X143720000Y-96400000D03*
X136100000Y-96400000D03*
D12*
X154000000Y-72000000D03*
D13*
X154000000Y-74540000D03*
X154000000Y-77080000D03*
X154000000Y-79620000D03*
X154000000Y-82160000D03*
X154000000Y-84700000D03*
X154000000Y-87240000D03*
X154000000Y-89780000D03*
D20*
X156100000Y-105750000D03*
X157400000Y-105750000D03*
D21*
X156137500Y-100950000D03*
X156137500Y-102850000D03*
X154262500Y-101900000D03*
D22*
X147912500Y-72000000D03*
X146087500Y-72000000D03*
D12*
X133365000Y-132350000D03*
D13*
X135905000Y-132350000D03*
X138445000Y-132350000D03*
X140985000Y-132350000D03*
X143525000Y-132350000D03*
X146065000Y-132350000D03*
X148605000Y-132350000D03*
X151145000Y-132350000D03*
X153685000Y-132350000D03*
X156225000Y-132350000D03*
X158765000Y-132350000D03*
X161305000Y-132350000D03*
X163845000Y-132350000D03*
X133365000Y-134890000D03*
X135905000Y-134890000D03*
X138445000Y-134890000D03*
X140985000Y-134890000D03*
X143525000Y-134890000D03*
X146065000Y-134890000D03*
X148605000Y-134890000D03*
X151145000Y-134890000D03*
X153685000Y-134890000D03*
X156225000Y-134890000D03*
X158765000Y-134890000D03*
X161305000Y-134890000D03*
X163845000Y-134890000D03*
D23*
X160000000Y-118000000D03*
D24*
X160000000Y-113000000D03*
D25*
X140700000Y-74160000D03*
X138700000Y-74160000D03*
D26*
X136300000Y-71910000D03*
X143100000Y-71910000D03*
D12*
X156540000Y-72000000D03*
D13*
X156540000Y-74540000D03*
X156540000Y-77080000D03*
X156540000Y-79620000D03*
X156540000Y-82160000D03*
X156540000Y-84700000D03*
X156540000Y-87240000D03*
X156540000Y-89780000D03*
D27*
X154287500Y-98900000D03*
X156112500Y-98900000D03*
D12*
X159080000Y-72000000D03*
D13*
X159080000Y-74540000D03*
X159080000Y-77080000D03*
X159080000Y-79620000D03*
X159080000Y-82160000D03*
X159080000Y-84700000D03*
X159080000Y-87240000D03*
X159080000Y-89780000D03*
D27*
X146087500Y-76200000D03*
X147912500Y-76200000D03*
D22*
X156025000Y-96900000D03*
X154200000Y-96900000D03*
X147912500Y-74000000D03*
X146087500Y-74000000D03*
M02*
